<?xml version="1.0" standalone="no"?> 
<!DOCTYPE svg PUBLIC "-//W3C//DTD SVG 1.1//EN" "http://www.w3.org/Graphics/SVG/1.1/DTD/svg11.dtd" >
<svg xmlns="http://www.w3.org/2000/svg">
<defs>
  <font id="mdi-sharp" horiz-adv-x="960">
    <font-face font-family="mdi-sharp"
      units-per-em="960" ascent="800"
      descent="160" />
    <missing-glyph horiz-adv-x="0" />
    <glyph glyph-name="10k"
      unicode="&#xE001;"
      horiz-adv-x="960" d=" M221.3333333333333 158H288V478H80V411.3333333333334H221.3333333333333V158zM337.3333333333333 158H564V478H337.3333333333333V158zM404 224.6666666666666V411.3333333333333H497.3333333333333V224.6666666666666H404zM613.3333333333333 158H679.9999999999999V278L791.9999999999999 158H879.9999999999999L730.6666666666666 318L880 478H792L680 358V478H613.3333333333334V158zM0 -162V798H960V-162H0zM80 -82H880V718H80V-82zM80 -82V718V-82z" />
    <glyph glyph-name="10k-fill"
      unicode="&#xE002;"
      horiz-adv-x="960" d=" M221.3333333333333 158H288V478H80V411.3333333333334H221.3333333333333V158zM337.3333333333333 158H564V478H337.3333333333333V158zM404 224.6666666666666V411.3333333333333H497.3333333333333V224.6666666666666H404zM613.3333333333333 158H679.9999999999999V278L791.9999999999999 158H879.9999999999999L730.6666666666666 318L880 478H792L680 358V478H613.3333333333334V158zM0 -162V798H960V-162H0z" />
    <glyph glyph-name="10mp"
      unicode="&#xE003;"
      horiz-adv-x="960" d=" M288 358H354.6666666666667V678H204V611.3333333333334H288V358zM488 358H714.6666666666666V678H488V358zM554.6666666666666 424.6666666666667V611.3333333333333H648V424.6666666666667H554.6666666666666zM150.6666666666666 -42H217.3333333333333V211.3333333333333H288V42H354.6666666666667V211.3333333333333H434.6666666666667V-42H501.3333333333333V278H150.6666666666666V-42zM581.3333333333333 -42H647.9999999999999V42H807.9999999999999V278H581.3333333333333V-42zM647.9999999999999 108.6666666666666V211.3333333333333H741.3333333333333V108.6666666666666H647.9999999999999zM0 -162V798H960V-162H0zM80 -82H880V718H80V-82zM80 -82V718V-82z" />
    <glyph glyph-name="10mp-fill"
      unicode="&#xE004;"
      horiz-adv-x="960" d=" M288 358H354.6666666666667V678H204V611.3333333333334H288V358zM488 358H714.6666666666666V678H488V358zM554.6666666666666 424.6666666666667V611.3333333333333H648V424.6666666666667H554.6666666666666zM150.6666666666666 -42H217.3333333333333V211.3333333333333H288V42H354.6666666666667V211.3333333333333H434.6666666666667V-42H501.3333333333333V278H150.6666666666666V-42zM581.3333333333333 -42H647.9999999999999V42H807.9999999999999V278H581.3333333333333V-42zM647.9999999999999 108.6666666666666V211.3333333333333H741.3333333333333V108.6666666666666H647.9999999999999zM0 -162V798H960V-162H0z" />
    <glyph glyph-name="11mp"
      unicode="&#xE005;"
      horiz-adv-x="960" d=" M306.6666666666667 358H373.3333333333333V678H221.3333333333333V611.3333333333334H306.6666666666667V358zM590.6666666666666 358H657.3333333333333V678H506.6666666666666V611.3333333333334H590.6666666666666V358zM150.6666666666666 -42H217.3333333333333V211.3333333333333H288V42H354.6666666666667V211.3333333333333H434.6666666666667V-42H501.3333333333333V278H150.6666666666666V-42zM581.3333333333333 -42H647.9999999999999V42H807.9999999999999V278H581.3333333333333V-42zM647.9999999999999 108.6666666666666V211.3333333333333H741.3333333333333V108.6666666666666H647.9999999999999zM0 -162V798H960V-162H0zM80 -82H880V718H80V-82zM80 -82V718V-82z" />
    <glyph glyph-name="11mp-fill"
      unicode="&#xE006;"
      horiz-adv-x="960" d=" M306.6666666666667 358H373.3333333333333V678H221.3333333333333V611.3333333333334H306.6666666666667V358zM590.6666666666666 358H657.3333333333333V678H506.6666666666666V611.3333333333334H590.6666666666666V358zM150.6666666666666 -42H217.3333333333333V211.3333333333333H288V42H354.6666666666667V211.3333333333333H434.6666666666667V-42H501.3333333333333V278H150.6666666666666V-42zM581.3333333333333 -42H647.9999999999999V42H807.9999999999999V278H581.3333333333333V-42zM647.9999999999999 108.6666666666666V211.3333333333333H741.3333333333333V108.6666666666666H647.9999999999999zM0 -162V798H960V-162H0z" />
    <glyph glyph-name="123"
      unicode="&#xE007;"
      horiz-adv-x="960" d=" M92.9032258064516 132.1935483870968V429.483870967742H0V503.8064516129032H167.2258064516129V132.1935483870968H92.9032258064516zM297.2903225806451 132.1935483870968V355.1612903225808H501.6774193548387V429.483870967742H297.2903225806451V503.8064516129033H576V280.8387096774194H371.6129032258065V206.5161290322581H576V132.1935483870968H297.2903225806451zM681.2903225806451 132.1935483870968V206.5161290322581H885.6774193548387V280.8387096774193H743.2258064516129V355.1612903225806H885.6774193548388V429.4838709677419H681.2903225806451V503.8064516129031H960V132.1935483870966H681.2903225806451z" />
    <glyph glyph-name="12mp"
      unicode="&#xE008;"
      horiz-adv-x="960" d=" M288 358H354.6666666666667V678H204V611.3333333333334H288V358zM488 358H714.6666666666666V424.6666666666667H554.6666666666666V495.3333333333333H714.6666666666666V677.9999999999999H488V611.3333333333333H648V539.3333333333333H488V358zM150.6666666666666 -42H217.3333333333333V211.3333333333333H288V42H354.6666666666667V211.3333333333333H434.6666666666667V-42H501.3333333333333V278H150.6666666666666V-42zM581.3333333333333 -42H647.9999999999999V42H807.9999999999999V278H581.3333333333333V-42zM647.9999999999999 108.6666666666666V211.3333333333333H741.3333333333333V108.6666666666666H647.9999999999999zM0 -162V798H960V-162H0zM80 -82H880V718H80V-82zM80 -82V718V-82z" />
    <glyph glyph-name="12mp-fill"
      unicode="&#xE009;"
      horiz-adv-x="960" d=" M288 358H354.6666666666667V678H204V611.3333333333334H288V358zM488 358H714.6666666666666V424.6666666666667H554.6666666666666V495.3333333333333H714.6666666666666V677.9999999999999H488V611.3333333333333H648V539.3333333333333H488V358zM150.6666666666666 -42H217.3333333333333V211.3333333333333H288V42H354.6666666666667V211.3333333333333H434.6666666666667V-42H501.3333333333333V278H150.6666666666666V-42zM581.3333333333333 -42H647.9999999999999V42H807.9999999999999V278H581.3333333333333V-42zM647.9999999999999 108.6666666666666V211.3333333333333H741.3333333333333V108.6666666666666H647.9999999999999zM0 -162V798H960V-162H0z" />
    <glyph glyph-name="13mp"
      unicode="&#xE00A;"
      horiz-adv-x="960" d=" M288 358H354.6666666666667V678H204V611.3333333333334H288V358zM480 358H706.6666666666666V678H480V611.3333333333334H640V539.3333333333334H533.3333333333334V495.3333333333334H640V424.6666666666668H480V358.0000000000001zM150.6666666666666 -42H217.3333333333333V211.3333333333333H288V42H354.6666666666667V211.3333333333333H434.6666666666667V-42H501.3333333333333V278H150.6666666666666V-42zM581.3333333333333 -42H647.9999999999999V42H807.9999999999999V278H581.3333333333333V-42zM647.9999999999999 108.6666666666666V211.3333333333333H741.3333333333333V108.6666666666666H647.9999999999999zM0 -162V798H960V-162H0zM80 -82H880V718H80V-82zM80 -82V718V-82z" />
    <glyph glyph-name="13mp-fill"
      unicode="&#xE00B;"
      horiz-adv-x="960" d=" M288 358H354.6666666666667V678H204V611.3333333333334H288V358zM480 358H706.6666666666666V678H480V611.3333333333334H640V539.3333333333334H533.3333333333334V495.3333333333334H640V424.6666666666668H480V358.0000000000001zM150.6666666666666 -42H217.3333333333333V211.3333333333333H288V42H354.6666666666667V211.3333333333333H434.6666666666667V-42H501.3333333333333V278H150.6666666666666V-42zM581.3333333333333 -42H647.9999999999999V42H807.9999999999999V278H581.3333333333333V-42zM647.9999999999999 108.6666666666666V211.3333333333333H741.3333333333333V108.6666666666666H647.9999999999999zM0 -162V798H960V-162H0z" />
    <glyph glyph-name="14mp"
      unicode="&#xE00C;"
      horiz-adv-x="960" d=" M288 358H354.6666666666667V678H204V611.3333333333334H288V358zM608 358H674.6666666666666V442H737.3333333333333V508.6666666666666H674.6666666666666V678H608V508.6666666666666H533.3333333333334V678H466.6666666666667V442H608V358zM150.6666666666666 -42H217.3333333333333V211.3333333333333H288V42H354.6666666666667V211.3333333333333H434.6666666666667V-42H501.3333333333333V278H150.6666666666666V-42zM581.3333333333333 -42H647.9999999999999V42H807.9999999999999V278H581.3333333333333V-42zM647.9999999999999 108.6666666666666V211.3333333333333H741.3333333333333V108.6666666666666H647.9999999999999zM0 -162V798H960V-162H0zM80 -82H880V718H80V-82zM80 -82V718V-82z" />
    <glyph glyph-name="14mp-fill"
      unicode="&#xE00D;"
      horiz-adv-x="960" d=" M288 358H354.6666666666667V678H204V611.3333333333334H288V358zM608 358H674.6666666666666V442H737.3333333333333V508.6666666666666H674.6666666666666V678H608V508.6666666666666H533.3333333333334V678H466.6666666666667V442H608V358zM150.6666666666666 -42H217.3333333333333V211.3333333333333H288V42H354.6666666666667V211.3333333333333H434.6666666666667V-42H501.3333333333333V278H150.6666666666666V-42zM581.3333333333333 -42H647.9999999999999V42H807.9999999999999V278H581.3333333333333V-42zM647.9999999999999 108.6666666666666V211.3333333333333H741.3333333333333V108.6666666666666H647.9999999999999zM0 -162V798H960V-162H0z" />
    <glyph glyph-name="15mp"
      unicode="&#xE00E;"
      horiz-adv-x="960" d=" M288 358H354.6666666666667V678H204V611.3333333333334H288V358zM488 358H714.6666666666666V539.3333333333333H554.6666666666666V611.3333333333333H714.6666666666666V678H488V495.3333333333333H648V424.6666666666667H488V358zM150.6666666666666 -42H217.3333333333333V211.3333333333333H288V42H354.6666666666667V211.3333333333333H434.6666666666667V-42H501.3333333333333V278H150.6666666666666V-42zM581.3333333333333 -42H647.9999999999999V42H807.9999999999999V278H581.3333333333333V-42zM647.9999999999999 108.6666666666666V211.3333333333333H741.3333333333333V108.6666666666666H647.9999999999999zM0 -162V798H960V-162H0zM80 -82H880V718H80V-82zM80 -82V718V-82z" />
    <glyph glyph-name="15mp-fill"
      unicode="&#xE00F;"
      horiz-adv-x="960" d=" M288 358H354.6666666666667V678H204V611.3333333333334H288V358zM488 358H714.6666666666666V539.3333333333333H554.6666666666666V611.3333333333333H714.6666666666666V678H488V495.3333333333333H648V424.6666666666667H488V358zM150.6666666666666 -42H217.3333333333333V211.3333333333333H288V42H354.6666666666667V211.3333333333333H434.6666666666667V-42H501.3333333333333V278H150.6666666666666V-42zM581.3333333333333 -42H647.9999999999999V42H807.9999999999999V278H581.3333333333333V-42zM647.9999999999999 108.6666666666666V211.3333333333333H741.3333333333333V108.6666666666666H647.9999999999999zM0 -162V798H960V-162H0z" />
    <glyph glyph-name="16mp"
      unicode="&#xE010;"
      horiz-adv-x="960" d=" M288 358H354.6666666666667V678H204V611.3333333333334H288V358zM488 358H714.6666666666666V539.3333333333333H554.6666666666666V611.3333333333333H714.6666666666666V678H488V358zM554.6666666666666 402V495.3333333333333H648V402H554.6666666666666zM150.6666666666666 -42H217.3333333333333V211.3333333333333H288V42H354.6666666666667V211.3333333333333H434.6666666666667V-42H501.3333333333333V278H150.6666666666666V-42zM581.3333333333333 -42H647.9999999999999V42H807.9999999999999V278H581.3333333333333V-42zM647.9999999999999 108.6666666666666V211.3333333333333H741.3333333333333V108.6666666666666H647.9999999999999zM0 -162V798H960V-162H0zM80 -82H880V718H80V-82zM80 -82V718V-82z" />
    <glyph glyph-name="16mp-fill"
      unicode="&#xE011;"
      horiz-adv-x="960" d=" M288 358H354.6666666666667V678H204V611.3333333333334H288V358zM488 358H714.6666666666666V539.3333333333333H554.6666666666666V611.3333333333333H714.6666666666666V678H488V358zM554.6666666666666 402V495.3333333333333H648V402H554.6666666666666zM150.6666666666666 -42H217.3333333333333V211.3333333333333H288V42H354.6666666666667V211.3333333333333H434.6666666666667V-42H501.3333333333333V278H150.6666666666666V-42zM581.3333333333333 -42H647.9999999999999V42H807.9999999999999V278H581.3333333333333V-42zM647.9999999999999 108.6666666666666V211.3333333333333H741.3333333333333V108.6666666666666H647.9999999999999zM0 -162V798H960V-162H0z" />
    <glyph glyph-name="17mp"
      unicode="&#xE012;"
      horiz-adv-x="960" d=" M288 358H354.6666666666667V678H204V611.3333333333334H288V358zM566.6666666666666 358H640L721.3333333333334 614V678H488V611.3333333333334H641.3333333333333L566.6666666666666 358zM150.6666666666666 -42H217.3333333333333V211.3333333333333H288V42H354.6666666666667V211.3333333333333H434.6666666666667V-42H501.3333333333333V278H150.6666666666666V-42zM581.3333333333333 -42H647.9999999999999V42H807.9999999999999V278H581.3333333333333V-42zM647.9999999999999 108.6666666666666V211.3333333333333H741.3333333333333V108.6666666666666H647.9999999999999zM0 -162V798H960V-162H0zM80 -82H880V718H80V-82zM80 -82V718V-82z" />
    <glyph glyph-name="17mp-fill"
      unicode="&#xE013;"
      horiz-adv-x="960" d=" M288 358H354.6666666666667V678H204V611.3333333333334H288V358zM566.6666666666666 358H640L721.3333333333334 614V678H488V611.3333333333334H641.3333333333333L566.6666666666666 358zM150.6666666666666 -42H217.3333333333333V211.3333333333333H288V42H354.6666666666667V211.3333333333333H434.6666666666667V-42H501.3333333333333V278H150.6666666666666V-42zM581.3333333333333 -42H647.9999999999999V42H807.9999999999999V278H581.3333333333333V-42zM647.9999999999999 108.6666666666666V211.3333333333333H741.3333333333333V108.6666666666666H647.9999999999999zM0 -162V798H960V-162H0z" />
    <glyph glyph-name="18-up-rating"
      unicode="&#xE014;"
      horiz-adv-x="960" d=" M288 158H354.6666666666667V478H204V411.3333333333334H288V158zM461.3333333333333 158H688V478H461.3333333333333V158zM528 208.6666666666666V294H621.3333333333334V208.6666666666666H528zM528 342V427.3333333333333H621.3333333333334V342H528zM0 -162V798H960V-162H0zM80 -82H880V718H80V-82zM80 -82V718V-82z" />
    <glyph glyph-name="18-up-rating-fill"
      unicode="&#xE015;"
      horiz-adv-x="960" d=" M288 158H354.6666666666667V478H204V411.3333333333334H288V158zM461.3333333333333 158H688V478H461.3333333333333V158zM528 208.6666666666666V294H621.3333333333334V208.6666666666666H528zM528 342V427.3333333333333H621.3333333333334V342H528zM0 -162V798H960V-162H0z" />
    <glyph glyph-name="18mp"
      unicode="&#xE016;"
      horiz-adv-x="960" d=" M288 358H354.6666666666667V678H204V611.3333333333334H288V358zM488 358H714.6666666666666V678H488V358zM554.6666666666666 542V627.3333333333333H648V542H554.6666666666666zM554.6666666666666 408.6666666666667V494H648V408.6666666666667H554.6666666666666zM150.6666666666666 -42H217.3333333333333V211.3333333333333H288V42H354.6666666666667V211.3333333333333H434.6666666666667V-42H501.3333333333333V278H150.6666666666666V-42zM581.3333333333333 -42H647.9999999999999V42H807.9999999999999V278H581.3333333333333V-42zM647.9999999999999 108.6666666666666V211.3333333333333H741.3333333333333V108.6666666666666H647.9999999999999zM0 -162V798H960V-162H0zM80 -82H880V718H80V-82zM80 -82V718V-82z" />
    <glyph glyph-name="18mp-fill"
      unicode="&#xE017;"
      horiz-adv-x="960" d=" M288 358H354.6666666666667V678H204V611.3333333333334H288V358zM488 358H714.6666666666666V678H488V358zM554.6666666666666 542V627.3333333333333H648V542H554.6666666666666zM554.6666666666666 408.6666666666667V494H648V408.6666666666667H554.6666666666666zM150.6666666666666 -42H217.3333333333333V211.3333333333333H288V42H354.6666666666667V211.3333333333333H434.6666666666667V-42H501.3333333333333V278H150.6666666666666V-42zM581.3333333333333 -42H647.9999999999999V42H807.9999999999999V278H581.3333333333333V-42zM647.9999999999999 108.6666666666666V211.3333333333333H741.3333333333333V108.6666666666666H647.9999999999999zM0 -162V798H960V-162H0z" />
    <glyph glyph-name="19mp"
      unicode="&#xE018;"
      horiz-adv-x="960" d=" M288 358H354.6666666666667V678H204V611.3333333333334H288V358zM488 358H714.6666666666666V678H488V495.3333333333334H648V424.6666666666668H488V358.0000000000001zM554.6666666666666 539.3333333333333V624.6666666666666H648V539.3333333333333H554.6666666666666zM150.6666666666666 -42H217.3333333333333V211.3333333333333H288V42H354.6666666666667V211.3333333333333H434.6666666666667V-42H501.3333333333333V278H150.6666666666666V-42zM581.3333333333333 -42H647.9999999999999V42H807.9999999999999V278H581.3333333333333V-42zM647.9999999999999 108.6666666666666V211.3333333333333H741.3333333333333V108.6666666666666H647.9999999999999zM0 -162V798H960V-162H0zM80 -82H880V718H80V-82zM80 -82V718V-82z" />
    <glyph glyph-name="19mp-fill"
      unicode="&#xE019;"
      horiz-adv-x="960" d=" M288 358H354.6666666666667V678H204V611.3333333333334H288V358zM488 358H714.6666666666666V678H488V495.3333333333334H648V424.6666666666668H488V358.0000000000001zM554.6666666666666 539.3333333333333V624.6666666666666H648V539.3333333333333H554.6666666666666zM150.6666666666666 -42H217.3333333333333V211.3333333333333H288V42H354.6666666666667V211.3333333333333H434.6666666666667V-42H501.3333333333333V278H150.6666666666666V-42zM581.3333333333333 -42H647.9999999999999V42H807.9999999999999V278H581.3333333333333V-42zM647.9999999999999 108.6666666666666V211.3333333333333H741.3333333333333V108.6666666666666H647.9999999999999zM0 -162V798H960V-162H0z" />
    <glyph glyph-name="1k-plus"
      unicode="&#xE01A;"
      horiz-adv-x="960" d=" M741.3333333333333 211.3333333333334H794.6666666666666V295.3333333333334H880V339.3333333333334H794.6666666666666V424.6666666666667H741.3333333333333V339.3333333333334H657.3333333333333V295.3333333333334H741.3333333333333V211.3333333333334zM421.3333333333333 158H487.9999999999999V278L599.9999999999999 158H687.9999999999999L538.6666666666666 318L688 478H600L488 358V478H421.3333333333334V158zM234.6666666666666 158H301.3333333333333V478H150.6666666666666V411.3333333333334H234.6666666666667V158zM0 -162V798H960V-162H0zM80 -82H880V718H80V-82zM80 -82V718V-82z" />
    <glyph glyph-name="1k-plus-fill"
      unicode="&#xE01B;"
      horiz-adv-x="960" d=" M741.3333333333333 211.3333333333334H794.6666666666666V295.3333333333334H880V339.3333333333334H794.6666666666666V424.6666666666667H741.3333333333333V339.3333333333334H657.3333333333333V295.3333333333334H741.3333333333333V211.3333333333334zM421.3333333333333 158H487.9999999999999V278L599.9999999999999 158H687.9999999999999L538.6666666666666 318L688 478H600L488 358V478H421.3333333333334V158zM234.6666666666666 158H301.3333333333333V478H150.6666666666666V411.3333333333334H234.6666666666667V158zM0 -162V798H960V-162H0z" />
    <glyph glyph-name="1k"
      unicode="&#xE01C;"
      horiz-adv-x="960" d=" M497.3333333333333 158H563.9999999999999V278L675.9999999999999 158H763.9999999999999L614.6666666666666 318L764 478H676L564 358V478H497.3333333333334V158zM288 158H354.6666666666667V478H204V411.3333333333334H288V158zM0 -162V798H960V-162H0zM80 -82H880V718H80V-82zM80 -82V718V-82z" />
    <glyph glyph-name="1k-fill"
      unicode="&#xE01D;"
      horiz-adv-x="960" d=" M497.3333333333333 158H563.9999999999999V278L675.9999999999999 158H763.9999999999999L614.6666666666666 318L764 478H676L564 358V478H497.3333333333334V158zM288 158H354.6666666666667V478H204V411.3333333333334H288V158zM0 -162V798H960V-162H0z" />
    <glyph glyph-name="1x-mobiledata-badge"
      unicode="&#xE01E;"
      horiz-adv-x="960" d=" M264.0000000000001 99.8181818181819H329.4545454545455V536.1818181818182H174.5454545454546V470.7272727272727H264.0000000000001V99.8181818181819zM458.1818181818182 99.8181818181819H529.0909090909091L621.8181818181819 267.8181818181819L716.7272727272727 99.8181818181819H786.5454545454545L661.090909090909 324.5454545454546L778.9090909090908 536.1818181818182H707.9999999999999L621.8181818181818 380.1818181818183L534.5454545454545 536.1818181818182H463.6363636363636L582.5454545454545 324.5454545454546L458.1818181818181 99.8181818181819zM1e-13 -74.7272727272726V710.7272727272727H960V-74.7272727272726H1e-13zM65.4545454545455 -9.2727272727271H894.5454545454545V645.2727272727274H65.4545454545455V-9.2727272727271zM65.4545454545455 -9.2727272727271V645.2727272727274V-9.2727272727271z" />
    <glyph glyph-name="1x-mobiledata-badge-fill"
      unicode="&#xE01F;"
      horiz-adv-x="960" d=" M264.0000000000001 99.8181818181819H329.4545454545455V535.0909090909091H174.5454545454546V469.6363636363637H264.0000000000001V99.8181818181819zM458.1818181818182 99.8181818181819H529.0909090909091L621.8181818181819 267.8181818181819L716.7272727272727 99.8181818181819H786.5454545454545L661.090909090909 324.5454545454546L778.9090909090908 536.1818181818182H707.9999999999999L621.8181818181818 380.1818181818183L534.5454545454545 536.1818181818182H463.6363636363636L582.5454545454545 324.5454545454546L458.1818181818181 99.8181818181819zM1e-13 -74.7272727272726V710.7272727272727H960V-74.7272727272726H1e-13z" />
    <glyph glyph-name="20mp"
      unicode="&#xE020;"
      horiz-adv-x="960" d=" M173.3333333333333 358H400V424.6666666666667H240V495.3333333333333H400V677.9999999999999H173.3333333333333V611.3333333333333H333.3333333333333V539.3333333333333H173.3333333333333V358zM550.6666666666666 358H777.3333333333333V678H550.6666666666666V358zM608 424.6666666666667V611.3333333333333H710.6666666666666V424.6666666666667H608zM150.6666666666666 -42H217.3333333333333V211.3333333333333H288V42H354.6666666666667V211.3333333333333H434.6666666666667V-42H501.3333333333333V278H150.6666666666666V-42zM581.3333333333333 -42H647.9999999999999V42H807.9999999999999V278H581.3333333333333V-42zM647.9999999999999 108.6666666666666V211.3333333333333H741.3333333333333V108.6666666666666H647.9999999999999zM0 -162V798H960V-162H0zM80 -82H880V718H80V-82zM80 -82V718V-82z" />
    <glyph glyph-name="20mp-fill"
      unicode="&#xE021;"
      horiz-adv-x="960" d=" M173.3333333333333 358H400V424.6666666666667H240V495.3333333333333H400V677.9999999999999H173.3333333333333V611.3333333333333H333.3333333333333V539.3333333333333H173.3333333333333V358zM550.6666666666666 358H777.3333333333333V678H550.6666666666666V358zM608 424.6666666666667V611.3333333333333H710.6666666666666V424.6666666666667H608zM150.6666666666666 -42H217.3333333333333V211.3333333333333H288V42H354.6666666666667V211.3333333333333H434.6666666666667V-42H501.3333333333333V278H150.6666666666666V-42zM581.3333333333333 -42H647.9999999999999V42H807.9999999999999V278H581.3333333333333V-42zM647.9999999999999 108.6666666666666V211.3333333333333H741.3333333333333V108.6666666666666H647.9999999999999zM0 -162V798H960V-162H0z" />
    <glyph glyph-name="21mp"
      unicode="&#xE022;"
      horiz-adv-x="960" d=" M234.6666666666667 358H461.3333333333333V424.6666666666667H301.3333333333333V495.3333333333333H461.3333333333333V677.9999999999999H234.6666666666667V611.3333333333333H394.6666666666667V539.3333333333333H234.6666666666667V358zM634.6666666666666 358H701.3333333333333V678H550.6666666666666V611.3333333333334H634.6666666666666V358zM150.6666666666666 -42H217.3333333333333V211.3333333333333H288V42H354.6666666666667V211.3333333333333H434.6666666666667V-42H501.3333333333333V278H150.6666666666666V-42zM581.3333333333333 -42H647.9999999999999V42H807.9999999999999V278H581.3333333333333V-42zM647.9999999999999 108.6666666666666V211.3333333333333H741.3333333333333V108.6666666666666H647.9999999999999zM0 -162V798H960V-162H0zM80 -82H880V718H80V-82zM80 -82V718V-82z" />
    <glyph glyph-name="21mp-fill"
      unicode="&#xE023;"
      horiz-adv-x="960" d=" M234.6666666666667 358H461.3333333333333V424.6666666666667H301.3333333333333V495.3333333333333H461.3333333333333V677.9999999999999H234.6666666666667V611.3333333333333H394.6666666666667V539.3333333333333H234.6666666666667V358zM634.6666666666666 358H701.3333333333333V678H550.6666666666666V611.3333333333334H634.6666666666666V358zM150.6666666666666 -42H217.3333333333333V211.3333333333333H288V42H354.6666666666667V211.3333333333333H434.6666666666667V-42H501.3333333333333V278H150.6666666666666V-42zM581.3333333333333 -42H647.9999999999999V42H807.9999999999999V278H581.3333333333333V-42zM647.9999999999999 108.6666666666666V211.3333333333333H741.3333333333333V108.6666666666666H647.9999999999999zM0 -162V798H960V-162H0z" />
    <glyph glyph-name="22mp"
      unicode="&#xE024;"
      horiz-adv-x="960" d=" M173.3333333333333 358H400V424.6666666666667H240V495.3333333333333H400V677.9999999999999H173.3333333333333V611.3333333333333H333.3333333333333V539.3333333333333H173.3333333333333V358zM550.6666666666666 358H777.3333333333333V424.6666666666667H617.3333333333333V495.3333333333333H777.3333333333333V677.9999999999999H550.6666666666666V611.3333333333333H710.6666666666666V539.3333333333333H550.6666666666666V358zM150.6666666666666 -42H217.3333333333333V211.3333333333333H288V42H354.6666666666667V211.3333333333333H434.6666666666667V-42H501.3333333333333V278H150.6666666666666V-42zM581.3333333333333 -42H647.9999999999999V42H807.9999999999999V278H581.3333333333333V-42zM647.9999999999999 108.6666666666666V211.3333333333333H741.3333333333333V108.6666666666666H647.9999999999999zM0 -162V798H960V-162H0zM80 -82H880V718H80V-82zM80 -82V718V-82z" />
    <glyph glyph-name="22mp-fill"
      unicode="&#xE025;"
      horiz-adv-x="960" d=" M173.3333333333333 358H400V424.6666666666667H240V495.3333333333333H400V677.9999999999999H173.3333333333333V611.3333333333333H333.3333333333333V539.3333333333333H173.3333333333333V358zM550.6666666666666 358H777.3333333333333V424.6666666666667H617.3333333333333V495.3333333333333H777.3333333333333V677.9999999999999H550.6666666666666V611.3333333333333H710.6666666666666V539.3333333333333H550.6666666666666V358zM150.6666666666666 -42H217.3333333333333V211.3333333333333H288V42H354.6666666666667V211.3333333333333H434.6666666666667V-42H501.3333333333333V278H150.6666666666666V-42zM581.3333333333333 -42H647.9999999999999V42H807.9999999999999V278H581.3333333333333V-42zM647.9999999999999 108.6666666666666V211.3333333333333H741.3333333333333V108.6666666666666H647.9999999999999zM0 -162V798H960V-162H0z" />
    <glyph glyph-name="23mp"
      unicode="&#xE026;"
      horiz-adv-x="960" d=" M173.3333333333333 358H400V424.6666666666667H240V495.3333333333333H400V677.9999999999999H173.3333333333333V611.3333333333333H333.3333333333333V539.3333333333333H173.3333333333333V358zM533.3333333333333 358H759.9999999999999V678H533.3333333333333V611.3333333333334H693.3333333333333V539.3333333333334H594.6666666666666V495.3333333333334H693.3333333333333V424.6666666666668H533.3333333333333V358.0000000000001zM150.6666666666666 -42H217.3333333333333V211.3333333333333H288V42H354.6666666666667V211.3333333333333H434.6666666666667V-42H501.3333333333333V278H150.6666666666666V-42zM581.3333333333333 -42H647.9999999999999V42H807.9999999999999V278H581.3333333333333V-42zM647.9999999999999 108.6666666666666V211.3333333333333H741.3333333333333V108.6666666666666H647.9999999999999zM0 -162V798H960V-162H0zM80 -82H880V718H80V-82zM80 -82V718V-82z" />
    <glyph glyph-name="23mp-fill"
      unicode="&#xE027;"
      horiz-adv-x="960" d=" M173.3333333333333 358H400V424.6666666666667H240V495.3333333333333H400V677.9999999999999H173.3333333333333V611.3333333333333H333.3333333333333V539.3333333333333H173.3333333333333V358zM533.3333333333333 358H759.9999999999999V678H533.3333333333333V611.3333333333334H693.3333333333333V539.3333333333334H594.6666666666666V495.3333333333334H693.3333333333333V424.6666666666668H533.3333333333333V358.0000000000001zM150.6666666666666 -42H217.3333333333333V211.3333333333333H288V42H354.6666666666667V211.3333333333333H434.6666666666667V-42H501.3333333333333V278H150.6666666666666V-42zM581.3333333333333 -42H647.9999999999999V42H807.9999999999999V278H581.3333333333333V-42zM647.9999999999999 108.6666666666666V211.3333333333333H741.3333333333333V108.6666666666666H647.9999999999999zM0 -162V798H960V-162H0z" />
    <glyph glyph-name="24mp"
      unicode="&#xE028;"
      horiz-adv-x="960" d=" M173.3333333333333 358H400V424.6666666666667H240V495.3333333333333H400V677.9999999999999H173.3333333333333V611.3333333333333H333.3333333333333V539.3333333333333H173.3333333333333V358zM666.6666666666666 358H733.3333333333333V442H794.6666666666666V508.6666666666666H733.3333333333333V678H666.6666666666666V508.6666666666666H590.6666666666666V678H524V442H666.6666666666666V358zM150.6666666666666 -42H217.3333333333333V211.3333333333333H288V42H354.6666666666667V211.3333333333333H434.6666666666667V-42H501.3333333333333V278H150.6666666666666V-42zM581.3333333333333 -42H647.9999999999999V42H807.9999999999999V278H581.3333333333333V-42zM647.9999999999999 108.6666666666666V211.3333333333333H741.3333333333333V108.6666666666666H647.9999999999999zM0 -162V798H960V-162H0zM80 -82H880V718H80V-82zM80 -82V718V-82z" />
    <glyph glyph-name="24mp-fill"
      unicode="&#xE029;"
      horiz-adv-x="960" d=" M173.3333333333333 358H400V424.6666666666667H240V495.3333333333333H400V677.9999999999999H173.3333333333333V611.3333333333333H333.3333333333333V539.3333333333333H173.3333333333333V358zM666.6666666666666 358H733.3333333333333V442H794.6666666666666V508.6666666666666H733.3333333333333V678H666.6666666666666V508.6666666666666H590.6666666666666V678H524V442H666.6666666666666V358zM150.6666666666666 -42H217.3333333333333V211.3333333333333H288V42H354.6666666666667V211.3333333333333H434.6666666666667V-42H501.3333333333333V278H150.6666666666666V-42zM581.3333333333333 -42H647.9999999999999V42H807.9999999999999V278H581.3333333333333V-42zM647.9999999999999 108.6666666666666V211.3333333333333H741.3333333333333V108.6666666666666H647.9999999999999zM0 -162V798H960V-162H0z" />
    <glyph glyph-name="2d"
      unicode="&#xE02A;"
      horiz-adv-x="960" d=" M190.6666666666666 158H417.3333333333333V224.6666666666666H257.3333333333333V295.3333333333333H417.3333333333333V477.9999999999999H190.6666666666666V411.3333333333333H350.6666666666667V339.3333333333333H190.6666666666666V158zM0 -162V798H960V-162H0zM80 -82H880V718H80V-82zM80 -82V718V-82zM533.3333333333333 154H770.6666666666665L799.9999999999999 184.6666666666666V452.6666666666666L770.6666666666665 481.9999999999999H533.3333333333333V154zM599.9999999999999 220.6666666666666V415.3333333333333H733.3333333333333V220.6666666666666H600z" />
    <glyph glyph-name="2d-fill"
      unicode="&#xE02B;"
      horiz-adv-x="960" d=" M190.6666666666666 158H417.3333333333333V224.6666666666666H257.3333333333333V295.3333333333333H417.3333333333333V477.9999999999999H190.6666666666666V411.3333333333333H350.6666666666667V339.3333333333333H190.6666666666666V158zM0 -162V798H960V-162H0zM533.3333333333333 154H770.6666666666665L799.9999999999999 184.6666666666666V452.6666666666666L770.6666666666665 481.9999999999999H533.3333333333333V154zM599.9999999999999 220.6666666666666V415.3333333333333H733.3333333333333V220.6666666666666H600z" />
    <glyph glyph-name="2k-plus"
      unicode="&#xE02C;"
      horiz-adv-x="960" d=" M741.3333333333333 211.3333333333334H794.6666666666666V295.3333333333334H880V339.3333333333334H794.6666666666666V424.6666666666667H741.3333333333333V339.3333333333334H657.3333333333333V295.3333333333334H741.3333333333333V211.3333333333334zM461.3333333333333 158H527.9999999999999V278L639.9999999999999 158H727.9999999999999L578.6666666666666 318L728 478H640L528 358V478H461.3333333333334V158zM160 158H381.3333333333333V224.6666666666666H226.6666666666667V295.3333333333333H381.3333333333333V477.9999999999999H160V411.3333333333333H314.6666666666667V339.3333333333333H160V158zM0 -162V798H960V-162H0zM80 -82H880V718H80V-82zM80 -82V718V-82z" />
    <glyph glyph-name="2k-plus-fill"
      unicode="&#xE02D;"
      horiz-adv-x="960" d=" M741.3333333333333 211.3333333333334H794.6666666666666V295.3333333333334H880V339.3333333333334H794.6666666666666V424.6666666666667H741.3333333333333V339.3333333333334H657.3333333333333V295.3333333333334H741.3333333333333V211.3333333333334zM461.3333333333333 158H527.9999999999999V278L639.9999999999999 158H727.9999999999999L578.6666666666666 318L728 478H640L528 358V478H461.3333333333334V158zM160 158H381.3333333333333V224.6666666666666H217.3333333333333V295.3333333333333H381.3333333333333V477.9999999999999H160V411.3333333333333H314.6666666666667V339.3333333333333H160V158zM0 -162V798H960V-162H0z" />
    <glyph glyph-name="2k"
      unicode="&#xE02E;"
      horiz-adv-x="960" d=" M533.3333333333333 158H599.9999999999999V278L711.9999999999999 158H799.9999999999999L650.6666666666666 318L800 478H712L600 358V478H533.3333333333334V158zM200 158H426.6666666666667V224.6666666666666H266.6666666666667V295.3333333333333H426.6666666666667V477.9999999999999H200V411.3333333333333H360V339.3333333333333H200V158zM0 -162V798H960V-162H0zM80 -82H880V718H80V-82zM80 -82V718V-82z" />
    <glyph glyph-name="2k-fill"
      unicode="&#xE02F;"
      horiz-adv-x="960" d=" M533.3333333333333 158H599.9999999999999V278L711.9999999999999 158H799.9999999999999L650.6666666666666 318L800 478H712L600 358V478H533.3333333333334V158zM200 158H426.6666666666667V224.6666666666666H266.6666666666667V295.3333333333333H426.6666666666667V477.9999999999999H200V411.3333333333333H360V339.3333333333333H200V158zM0 -162V798H960V-162H0z" />
    <glyph glyph-name="2mp"
      unicode="&#xE030;"
      horiz-adv-x="960" d=" M150.6666666666666 -42H217.3333333333333V211.3333333333333H288V42H354.6666666666667V211.3333333333333H434.6666666666667V-42H501.3333333333333V278H150.6666666666666V-42zM366.6666666666667 358H593.3333333333333V424.6666666666667H433.3333333333333V495.3333333333333H593.3333333333333V677.9999999999999H366.6666666666667V611.3333333333333H526.6666666666666V539.3333333333333H366.6666666666667V358zM581.3333333333333 -42H647.9999999999999V42H807.9999999999999V278H581.3333333333333V-42zM647.9999999999999 108.6666666666666V211.3333333333333H741.3333333333333V108.6666666666666H647.9999999999999zM0 -162V798H960V-162H0zM80 -82H880V718H80V-82zM80 -82V718V-82z" />
    <glyph glyph-name="2mp-fill"
      unicode="&#xE031;"
      horiz-adv-x="960" d=" M150.6666666666666 -42H217.3333333333333V211.3333333333333H288V42H354.6666666666667V211.3333333333333H434.6666666666667V-42H501.3333333333333V278H150.6666666666666V-42zM366.6666666666667 358H593.3333333333333V424.6666666666667H433.3333333333333V495.3333333333333H593.3333333333333V677.9999999999999H366.6666666666667V611.3333333333333H526.6666666666666V539.3333333333333H366.6666666666667V358zM581.3333333333333 -42H647.9999999999999V42H807.9999999999999V278H581.3333333333333V-42zM647.9999999999999 108.6666666666666V211.3333333333333H741.3333333333333V108.6666666666666H647.9999999999999zM0 -162V798H960V-162H0z" />
    <glyph glyph-name="30fps-select"
      unicode="&#xE032;"
      horiz-adv-x="960" d=" M69.3333333333333 264.6666666666668V344.6666666666668H334.6666666666667V491.3333333333334H68V571.3333333333334H334.6666666666667V718H69.3333333333333V798H414.6666666666667V264.6666666666668H69.3333333333333zM548 264.6666666666668V798H892V264.6666666666668H548zM628 344.6666666666668H812V718H628V344.6666666666668zM0 -162V88.6666666666666H80V-162H0zM160 -162V88.6666666666666H240V-162H160zM320 -162V88.6666666666666H400V-162H320zM480 -162V88.6666666666666H960V-162H480z" />
    <glyph glyph-name="30fps"
      unicode="&#xE033;"
      horiz-adv-x="960" d=" M0 -18V78H306V270H3.6V366H306V558H0V654H402V366L354 318L402 270V-18H0zM602.4 78H864V558H602.4V78zM506.4 -18V654H960V-18H506.4z" />
    <glyph glyph-name="3d-rotation"
      unicode="&#xE034;"
      horiz-adv-x="960" d=" M480 -162Q381.6 -162 294 -124.2T141 -21Q75.6 44.4 37.8 132T0 318H72Q72 165.6 172.8 49.8T427.2 -86.4L354 -13.1999999999999L402 34.8000000000001L586.8 -150Q560.4 -158.4 534 -160.2T480 -162zM514.8 164.4V472.8H666L718.8 420V217.1999999999999L666 164.4H514.8zM242.4 164.4V223.1999999999999H386.4V295.2H294V342H386.4V412.8H242.4V472.8H446.4V164.4H242.4zM573.5999999999999 223.1999999999999H658.8V412.8H573.5999999999999V223.1999999999999zM887.9999999999999 318Q887.9999999999999 471.5999999999999 787.7999999999998 586.8T534 722.4L606 650.4L558 602.4L373.2000000000001 787.2Q399.6 795.6 426.0000000000001 796.8T480.0000000000001 798Q579.6 798 666.6 760.2T819 657Q884.4 591.6 922.2 504.6T960 318H888z" />
    <glyph glyph-name="3d"
      unicode="&#xE035;"
      horiz-adv-x="960" d=" M528 465.6V170.4000000000001H732L768 206.4000000000001V429.6000000000001L732 465.6000000000001H528zM588 230.4000000000001V405.6000000000001H708V230.4000000000001H588zM204 174.0000000000001H384L408 198.0000000000001V294.0000000000001L384 318.0000000000001L408 342.0000000000001V438.0000000000001L384 462.0000000000001H204V402.0000000000001H348V348.0000000000001H259.2V288.0000000000001H348V234.0000000000001H204V174.0000000000001zM0 -66V702H960V-66H0zM72 6H888V630H72V6zM72 6V630V6z" />
    <glyph glyph-name="3d-fill"
      unicode="&#xE036;"
      horiz-adv-x="960" d=" M528 465.6V170.4000000000001H732L768 206.4000000000001V429.6000000000001L732 465.6000000000001H528zM588 230.4000000000001V405.6000000000001H708V230.4000000000001H588zM204 174.0000000000001H384L408 198.0000000000001V294.0000000000001L384 318.0000000000001L408 342.0000000000001V438.0000000000001L384 462.0000000000001H204V402.0000000000001H348V348.0000000000001H259.2V288.0000000000001H348V234.0000000000001H204V174.0000000000001zM0 -66V702H960V-66H0zM72 6H888V630H72V6zM72 6V630H888V6H72z" />
    <glyph glyph-name="3g-mobiledata-badge"
      unicode="&#xE037;"
      horiz-adv-x="960" d=" M1e-13 -74.7272727272726V710.7272727272727H960V-74.7272727272726H1e-13zM65.4545454545455 -9.2727272727271H894.5454545454545V645.2727272727274H65.4545454545455V-9.2727272727271zM65.4545454545455 -9.2727272727271V645.2727272727274V-9.2727272727271zM490.9090909090909 99.818181818182H785.4545454545455V352.9090909090911H654.5454545454545V287.4545454545456H721.090909090909V165.2727272727275H556.3636363636364V470.7272727272729H785.4545454545455V536.1818181818184H490.9090909090909V99.818181818182zM174.5454545454546 99.818181818182H422.1818181818183V285.2727272727275L389.4545454545455 316.9090909090911L422.1818181818183 350.7272727272729V536.1818181818184H174.5454545454546V470.7272727272729H356.7272727272728V350.7272727272729H176.7272727272728V285.2727272727275H356.7272727272728V165.2727272727275H174.5454545454546V99.818181818182z" />
    <glyph glyph-name="3g-mobiledata-badge-fill"
      unicode="&#xE038;"
      horiz-adv-x="960" d=" M490.9090909090909 99.8181818181819H785.4545454545455V352.909090909091H654.5454545454545V287.4545454545455H721.090909090909V165.2727272727274H556.3636363636364V470.7272727272728H785.4545454545455V536.1818181818182H490.9090909090909V99.818181818182zM174.5454545454546 99.8181818181819H422.1818181818183V285.2727272727273L389.4545454545455 316.9090909090909L422.1818181818183 350.7272727272727V536.1818181818181H174.5454545454546V470.7272727272727H356.7272727272728V350.7272727272727H176.7272727272728V285.2727272727273H356.7272727272728V165.2727272727273H174.5454545454546V99.8181818181818zM1e-13 -74.7272727272726V710.7272727272727H960V-74.7272727272726H1e-13z" />
    <glyph glyph-name="3g-mobiledata"
      unicode="&#xE039;"
      horiz-adv-x="960" d=" M0 51.3333333333333V131.3333333333333H276V277.9999999999999H2.6666666666667V357.9999999999999H276V504.6666666666665H0V584.6666666666665H356V51.3333333333333H0zM960 360.6666666666666V51.3333333333333H493.3333333333333V584.6666666666665H959.9999999999998V504.6666666666665H573.3333333333333V131.3333333333333H881.3333333333333V280.6666666666665H744V360.6666666666665H960z" />
    <glyph glyph-name="3k-plus"
      unicode="&#xE03A;"
      horiz-adv-x="960" d=" M741.3333333333333 211.3333333333334H794.6666666666666V295.3333333333334H880V339.3333333333334H794.6666666666666V424.6666666666667H741.3333333333333V339.3333333333334H657.3333333333333V295.3333333333334H741.3333333333333V211.3333333333334zM461.3333333333333 158H527.9999999999999V278L639.9999999999999 158H727.9999999999999L578.6666666666666 318L728 478H640L528 358V478H461.3333333333334V158zM137.3333333333333 158H363.9999999999999V478H137.3333333333333V411.3333333333334H297.3333333333333V339.3333333333334H190.6666666666667V295.3333333333334H297.3333333333333V224.6666666666668H137.3333333333333V158.0000000000001zM0 -162V798H960V-162H0zM80 -82H880V718H80V-82zM80 -82V718V-82z" />
    <glyph glyph-name="3k-plus-fill"
      unicode="&#xE03B;"
      horiz-adv-x="960" d=" M741.3333333333333 211.3333333333334H794.6666666666666V295.3333333333334H880V339.3333333333334H794.6666666666666V424.6666666666667H741.3333333333333V339.3333333333334H657.3333333333333V295.3333333333334H741.3333333333333V211.3333333333334zM461.3333333333333 158H527.9999999999999V278L639.9999999999999 158H727.9999999999999L578.6666666666666 318L728 478H640L528 358V478H461.3333333333334V158zM137.3333333333333 158H363.9999999999999V478H137.3333333333333V411.3333333333334H297.3333333333333V339.3333333333334H190.6666666666667V295.3333333333334H297.3333333333333V224.6666666666668H137.3333333333333V158.0000000000001zM0 -162V798H960V-162H0z" />
    <glyph glyph-name="3k"
      unicode="&#xE03C;"
      horiz-adv-x="960" d=" M533.3333333333333 158H599.9999999999999V278L711.9999999999999 158H799.9999999999999L650.6666666666666 318L800 478H712L600 358V478H533.3333333333334V158zM164 158H390.6666666666667V478H164V411.3333333333334H324V339.3333333333334H226.6666666666667V295.3333333333334H324V224.6666666666668H164V158.0000000000001zM0 -162V798H960V-162H0zM80 -82H880V718H80V-82zM80 -82V718V-82z" />
    <glyph glyph-name="3k-fill"
      unicode="&#xE03D;"
      horiz-adv-x="960" d=" M533.3333333333333 158H599.9999999999999V278L711.9999999999999 158H799.9999999999999L650.6666666666666 318L800 478H712L600 358V478H533.3333333333334V158zM164 158H390.6666666666667V478H164V411.3333333333334H324V339.3333333333334H226.6666666666667V295.3333333333334H324V224.6666666666668H164V158.0000000000001zM0 -162V798H960V-162H0z" />
    <glyph glyph-name="3mp"
      unicode="&#xE03E;"
      horiz-adv-x="960" d=" M337.3333333333333 358H564V678H337.3333333333333V611.3333333333334H497.3333333333333V539.3333333333334H400V495.3333333333334H497.3333333333333V424.6666666666668H337.3333333333333V358.0000000000001zM150.6666666666666 -42H217.3333333333333V211.3333333333333H288V42H354.6666666666667V211.3333333333333H434.6666666666667V-42H501.3333333333333V278H150.6666666666666V-42zM581.3333333333333 -42H647.9999999999999V42H807.9999999999999V278H581.3333333333333V-42zM647.9999999999999 108.6666666666666V211.3333333333333H741.3333333333333V108.6666666666666H647.9999999999999zM0 -162V798H960V-162H0zM80 -82H880V718H80V-82zM80 -82V718V-82z" />
    <glyph glyph-name="3mp-fill"
      unicode="&#xE03F;"
      horiz-adv-x="960" d=" M337.3333333333333 358H564V678H337.3333333333333V611.3333333333334H497.3333333333333V539.3333333333334H400V495.3333333333334H497.3333333333333V424.6666666666668H337.3333333333333V358.0000000000001zM150.6666666666666 -42H217.3333333333333V211.3333333333333H288V42H354.6666666666667V211.3333333333333H434.6666666666667V-42H501.3333333333333V278H150.6666666666666V-42zM581.3333333333333 -42H647.9999999999999V42H807.9999999999999V278H581.3333333333333V-42zM647.9999999999999 108.6666666666666V211.3333333333333H741.3333333333333V108.6666666666666H647.9999999999999zM0 -162V798H960V-162H0z" />
    <glyph glyph-name="3p"
      unicode="&#xE040;"
      horiz-adv-x="960" d=" M288 222H672V244.8Q672 295.2 621 322.8T480 350.4Q390 350.4 339 322.8T288 244.8000000000001V222.0000000000001zM480 429.6Q516.624 429.6 542.712 455.688Q568.8 481.7640000000001 568.8 518.4000000000001Q568.8 555.0360000000001 542.712 581.1120000000001Q516.6239999999999 607.2 480 607.2T417.288 581.112Q391.2 555.0360000000001 391.2 518.4000000000001Q391.2 481.764 417.288 455.688Q443.376 429.6 480 429.6zM0 -162V798H960V30H192L0 -162zM160.8 102H887.9999999999999V726H72V6L160.8 102zM72 102V726V102z" />
    <glyph glyph-name="3p-fill"
      unicode="&#xE041;"
      horiz-adv-x="960" d=" M288 222H672V244.8Q672 295.2 621 322.8T480 350.4Q390 350.4 339 322.8T288 244.8000000000001V222.0000000000001zM480 429.6Q516.624 429.6 542.712 455.688Q568.8 481.7640000000001 568.8 518.4000000000001Q568.8 555.0360000000001 542.712 581.1120000000001Q516.6239999999999 607.2 480 607.2T417.288 581.112Q391.2 555.0360000000001 391.2 518.4000000000001Q391.2 481.764 417.288 455.688Q443.376 429.6 480 429.6zM0 -162V798H960V30H192L0 -162z" />
    <glyph glyph-name="4g-mobiledata-badge"
      unicode="&#xE042;"
      horiz-adv-x="960" d=" M534.5454545454545 99.8181818181819H829.090909090909V352.909090909091H717.8181818181818V287.4545454545455H764.7272727272726V165.2727272727274H600V470.7272727272728H829.090909090909V536.1818181818182H534.5454545454545V99.818181818182zM309.8181818181818 99.8181818181819H375.2727272727272V241.6363636363638H467.9999999999999V307.0909090909092H375.2727272727272V536.1818181818182H309.8181818181817V307.0909090909092H196.3636363636364V536.1818181818182H130.9090909090909V241.6363636363638H309.8181818181819V99.818181818182zM1e-13 -74.7272727272726V710.7272727272727H960V-74.7272727272726H1e-13zM65.4545454545455 -9.2727272727271H894.5454545454545V645.2727272727274H65.4545454545455V-9.2727272727271zM65.4545454545455 -9.2727272727271V645.2727272727274V-9.2727272727271z" />
    <glyph glyph-name="4g-mobiledata-badge-fill"
      unicode="&#xE043;"
      horiz-adv-x="960" d=" M534.5454545454545 99.8181818181819H829.090909090909V352.909090909091H717.8181818181818V287.4545454545455H764.7272727272726V165.2727272727274H600V470.7272727272728H829.090909090909V536.1818181818182H534.5454545454545V99.818181818182zM309.8181818181818 99.8181818181819H375.2727272727272V241.6363636363638H467.9999999999999V307.0909090909092H375.2727272727272V536.1818181818182H309.8181818181817V307.0909090909092H196.3636363636364V536.1818181818182H130.9090909090909V241.6363636363638H309.8181818181819V99.818181818182zM1e-13 -74.7272727272726V710.7272727272727H960V-74.7272727272726H1e-13z" />
    <glyph glyph-name="4g-mobiledata"
      unicode="&#xE044;"
      horiz-adv-x="960" d=" M218.6666666666666 51.3333333333333V224.6666666666665H0V584.6666666666665H80V304.6666666666665H218.6666666666667V584.6666666666665H298.6666666666667V304.6666666666665H412V224.6666666666665H298.6666666666667V51.3333333333333H218.6666666666666zM493.3333333333333 51.3333333333333V584.6666666666665H959.9999999999998V504.6666666666665H573.3333333333333V131.3333333333333H881.3333333333333V280.6666666666665H744V360.6666666666665H960V51.3333333333333H493.3333333333333z" />
    <glyph glyph-name="4g-plus-mobiledata"
      unicode="&#xE045;"
      horiz-adv-x="960" d=" M808.695652173913 198V286.695652173913H720V349.304347826087H808.695652173913V438H871.3043478260869V349.304347826087H959.9999999999998V286.695652173913H871.3043478260869V198H808.695652173913zM166.9565217391304 109.304347826087V239.7391304347826H0V526.695652173913H62.6086956521739V302.3478260869566H166.9565217391304V526.695652173913H229.5652173913044V302.3478260869566H279.6521739130435V239.7391304347826H229.5652173913044V109.304347826087H166.9565217391305zM341.2173913043478 109.304347826087V526.695652173913H663.6521739130434V464.0869565217391H403.8260869565217V171.9130434782609H601.0434782608695V286.695652173913H517.5652173913043V349.304347826087H663.6521739130434V109.304347826087H341.2173913043478z" />
    <glyph glyph-name="4k-plus"
      unicode="&#xE046;"
      horiz-adv-x="960" d=" M741.3333333333333 211.3333333333334H794.6666666666666V295.3333333333334H880V339.3333333333334H794.6666666666666V424.6666666666667H741.3333333333333V339.3333333333334H657.3333333333333V295.3333333333334H741.3333333333333V211.3333333333334zM466.6666666666666 158H533.3333333333333V278L645.3333333333333 158H733.3333333333333L584 318L733.3333333333333 478H645.3333333333333L533.3333333333333 358V478H466.6666666666666V158zM297.3333333333333 158H364V242H417.3333333333333V308.6666666666667H364V477.9999999999999H297.3333333333334V308.6666666666667H213.3333333333334V477.9999999999999H146.6666666666667V242H297.3333333333334V158zM0 -162V798H960V-162H0zM80 -82H880V718H80V-82zM80 -82V718V-82z" />
    <glyph glyph-name="4k-plus-fill"
      unicode="&#xE047;"
      horiz-adv-x="960" d=" M741.3333333333333 211.3333333333334H794.6666666666666V295.3333333333334H880V339.3333333333334H794.6666666666666V424.6666666666667H741.3333333333333V339.3333333333334H657.3333333333333V295.3333333333334H741.3333333333333V211.3333333333334zM466.6666666666666 158H533.3333333333333V278L645.3333333333333 158H733.3333333333333L584 318L733.3333333333333 478H645.3333333333333L533.3333333333333 358V478H466.6666666666666V158zM297.3333333333333 158H364V242H417.3333333333333V308.6666666666667H364V477.9999999999999H297.3333333333334V308.6666666666667H213.3333333333334V477.9999999999999H146.6666666666667V242H297.3333333333334V158zM0 -162V798H960V-162H0z" />
    <glyph glyph-name="4k"
      unicode="&#xE048;"
      horiz-adv-x="960" d=" M533.3333333333333 158H599.9999999999999V278L711.9999999999999 158H799.9999999999999L650.6666666666666 318L800 478H712L600 358V478H533.3333333333334V158zM333.3333333333333 158H399.9999999999999V242H453.3333333333332V308.6666666666667H399.9999999999999V477.9999999999999H333.3333333333333V308.6666666666667H248V477.9999999999999H181.3333333333333V242H333.3333333333333V158zM0 -162V798H960V-162H0zM80 -82H880V718H80V-82zM80 -82V718V-82z" />
    <glyph glyph-name="4k-fill"
      unicode="&#xE049;"
      horiz-adv-x="960" d=" M533.3333333333333 158H599.9999999999999V278L711.9999999999999 158H799.9999999999999L650.6666666666666 318L800 478H712L600 358V478H533.3333333333334V158zM333.3333333333333 158H399.9999999999999V242H453.3333333333332V308.6666666666667H399.9999999999999V477.9999999999999H333.3333333333333V308.6666666666667H248V477.9999999999999H181.3333333333333V242H333.3333333333333V158zM0 -162V798H960V-162H0z" />
    <glyph glyph-name="4mp"
      unicode="&#xE04A;"
      horiz-adv-x="960" d=" M484 358H550.6666666666666V442H586.6666666666666V508.6666666666666H550.6666666666666V678H484V508.6666666666666H381.3333333333334V678H314.6666666666668V442H484.0000000000001V358zM150.6666666666666 -42H217.3333333333333V211.3333333333333H288V42H354.6666666666667V211.3333333333333H434.6666666666667V-42H501.3333333333333V278H150.6666666666666V-42zM581.3333333333333 -42H647.9999999999999V42H807.9999999999999V278H581.3333333333333V-42zM647.9999999999999 108.6666666666666V211.3333333333333H741.3333333333333V108.6666666666666H647.9999999999999zM0 -162V798H960V-162H0zM80 -82H880V718H80V-82zM80 -82V718V-82z" />
    <glyph glyph-name="4mp-fill"
      unicode="&#xE04B;"
      horiz-adv-x="960" d=" M484 358H550.6666666666666V442H586.6666666666666V508.6666666666666H550.6666666666666V678H484V508.6666666666666H381.3333333333334V678H314.6666666666668V442H484.0000000000001V358zM150.6666666666666 -42H217.3333333333333V211.3333333333333H288V42H354.6666666666667V211.3333333333333H434.6666666666667V-42H501.3333333333333V278H150.6666666666666V-42zM581.3333333333333 -42H647.9999999999999V42H807.9999999999999V278H581.3333333333333V-42zM647.9999999999999 108.6666666666666V211.3333333333333H741.3333333333333V108.6666666666666H647.9999999999999zM0 -162V798H960V-162H0z" />
    <glyph glyph-name="50mp"
      unicode="&#xE04C;"
      horiz-adv-x="960" d=" M524 358H750.6666666666666V678H524V358zM581.3333333333334 424.6666666666667V611.3333333333333H684V424.6666666666667H581.3333333333334zM150.6666666666666 -42H217.3333333333333V211.3333333333333H288V42H354.6666666666667V211.3333333333333H434.6666666666667V-42H501.3333333333333V278H150.6666666666666V-42zM581.3333333333333 -42H647.9999999999999V42H807.9999999999999V278H581.3333333333333V-42zM647.9999999999999 108.6666666666666V211.3333333333333H741.3333333333333V108.6666666666666H647.9999999999999zM0 -162V798H960V-162H0zM80 -82H880V718H80V-82zM80 718V-82V718zM194.6666666666667 358H421.3333333333333V539.3333333333333H261.3333333333333V611.3333333333333H421.3333333333333V678H194.6666666666666V495.3333333333333H354.6666666666667V424.6666666666667H194.6666666666666V358z" />
    <glyph glyph-name="50mp-fill"
      unicode="&#xE04D;"
      horiz-adv-x="960" d=" M524 358H750.6666666666666V678H524V358zM581.3333333333334 424.6666666666667V611.3333333333333H684V424.6666666666667H581.3333333333334zM150.6666666666666 -42H217.3333333333333V211.3333333333333H288V42H354.6666666666667V211.3333333333333H434.6666666666667V-42H501.3333333333333V278H150.6666666666666V-42zM581.3333333333333 -42H647.9999999999999V42H807.9999999999999V278H581.3333333333333V-42zM647.9999999999999 108.6666666666666V211.3333333333333H741.3333333333333V108.6666666666666H647.9999999999999zM0 -162V798H960V-162H0zM194.6666666666667 358H421.3333333333333V539.3333333333333H261.3333333333333V611.3333333333333H421.3333333333333V678H194.6666666666666V495.3333333333333H354.6666666666667V424.6666666666667H194.6666666666666V358z" />
    <glyph glyph-name="5g-mobiledata-badge"
      unicode="&#xE04E;"
      horiz-adv-x="960" d=" M1e-13 -74.7272727272726V710.7272727272727H960V-74.7272727272726H1e-13zM65.4545454545455 -9.2727272727271H894.5454545454545V645.2727272727274H65.4545454545455V-9.2727272727271zM785.4545454545455 352.909090909091H654.5454545454545V287.4545454545455H721.090909090909V165.2727272727274H556.3636363636364V470.7272727272728H785.4545454545455V536.1818181818182H490.9090909090909V99.818181818182H785.4545454545455V352.9090909090911zM174.5454545454546 99.8181818181819H436.3636363636364V350.7272727272728H240.0000000000001V470.7272727272727H436.3636363636364V536.1818181818182H174.5454545454546V285.2727272727273H370.909090909091V165.2727272727273H174.5454545454546V99.8181818181818zM65.4545454545455 -9.2727272727273V645.2727272727273V-9.2727272727273z" />
    <glyph glyph-name="5g-mobiledata-badge-fill"
      unicode="&#xE04F;"
      horiz-adv-x="960" d=" M1e-13 -74.7272727272726V710.7272727272727H960V-74.7272727272726H1e-13zM785.4545454545455 352.909090909091H654.5454545454545V287.4545454545455H721.090909090909V165.2727272727274H556.3636363636364V470.7272727272728H785.4545454545455V536.1818181818182H490.9090909090909V99.818181818182H785.4545454545455V352.9090909090911zM174.5454545454546 99.8181818181819H436.3636363636364V350.7272727272728H240.0000000000001V470.7272727272727H436.3636363636364V536.1818181818182H174.5454545454546V285.2727272727273H370.909090909091V165.2727272727273H174.5454545454546V99.8181818181818z" />
    <glyph glyph-name="5g"
      unicode="&#xE050;"
      horiz-adv-x="960" d=" M0 51.3333333333333V131.3333333333333H293.3333333333333V277.9999999999999H0V584.6666666666665H373.3333333333333V504.6666666666665H80V357.9999999999999H373.3333333333333V51.3333333333333H0zM960 360.6666666666666V51.3333333333333H493.3333333333333V584.6666666666665H959.9999999999998V504.6666666666665H573.3333333333333V131.3333333333333H881.3333333333333V280.6666666666665H744V360.6666666666665H960z" />
    <glyph glyph-name="5k-plus"
      unicode="&#xE051;"
      horiz-adv-x="960" d=" M741.3333333333333 211.3333333333334H794.6666666666666V295.3333333333334H880V339.3333333333334H794.6666666666666V424.6666666666667H741.3333333333333V339.3333333333334H657.3333333333333V295.3333333333334H741.3333333333333V211.3333333333334zM461.3333333333333 158H527.9999999999999V278L639.9999999999999 158H727.9999999999999L578.6666666666666 318L728 478H640L528 358V478H461.3333333333334V158zM150.6666666666666 158H373.3333333333333V339.3333333333333H217.3333333333333V411.3333333333333H373.3333333333333V478H150.6666666666666V295.3333333333334H306.6666666666667V224.6666666666668H150.6666666666666V158.0000000000001zM0 -162V798H960V-162H0zM80 -82H880V718H80V-82zM80 -82V718V-82z" />
    <glyph glyph-name="5k-plus-fill"
      unicode="&#xE052;"
      horiz-adv-x="960" d=" M741.3333333333333 211.3333333333334H794.6666666666666V295.3333333333334H880V339.3333333333334H794.6666666666666V424.6666666666667H741.3333333333333V339.3333333333334H657.3333333333333V295.3333333333334H741.3333333333333V211.3333333333334zM461.3333333333333 158H527.9999999999999V278L639.9999999999999 158H727.9999999999999L578.6666666666666 318L728 478H640L528 358V478H461.3333333333334V158zM150.6666666666666 158H373.3333333333333V339.3333333333333H217.3333333333333V411.3333333333333H373.3333333333333V478H150.6666666666666V295.3333333333334H306.6666666666667V224.6666666666668H150.6666666666666V158.0000000000001zM0 -162V798H960V-162H0z" />
    <glyph glyph-name="5k"
      unicode="&#xE053;"
      horiz-adv-x="960" d=" M533.3333333333333 158H599.9999999999999V278L711.9999999999999 158H799.9999999999999L650.6666666666666 318L800 478H712L600 358V478H533.3333333333334V158zM181.3333333333333 158H407.9999999999999V339.3333333333333H248V411.3333333333333H408V478H181.3333333333333V295.3333333333334H341.3333333333333V224.6666666666668H181.3333333333333V158.0000000000001zM0 -162V798H960V-162H0zM80 -82H880V718H80V-82zM80 -82V718V-82z" />
    <glyph glyph-name="5k-fill"
      unicode="&#xE054;"
      horiz-adv-x="960" d=" M533.3333333333333 158H599.9999999999999V278L711.9999999999999 158H799.9999999999999L650.6666666666666 318L800 478H712L600 358V478H533.3333333333334V158zM181.3333333333333 158H407.9999999999999V339.3333333333333H248V411.3333333333333H408V478H181.3333333333333V295.3333333333334H341.3333333333333V224.6666666666668H181.3333333333333V158.0000000000001zM0 -162V798H960V-162H0z" />
    <glyph glyph-name="5mp"
      unicode="&#xE055;"
      horiz-adv-x="960" d=" M337.3333333333333 358H564V539.3333333333333H404V611.3333333333333H564V678H337.3333333333333V495.3333333333333H497.3333333333333V424.6666666666667H337.3333333333333V358zM150.6666666666666 -42H217.3333333333333V211.3333333333333H288V42H354.6666666666667V211.3333333333333H434.6666666666667V-42H501.3333333333333V278H150.6666666666666V-42zM581.3333333333333 -42H647.9999999999999V42H807.9999999999999V278H581.3333333333333V-42zM647.9999999999999 108.6666666666666V211.3333333333333H741.3333333333333V108.6666666666666H647.9999999999999zM0 -162V798H960V-162H0zM80 -82H880V718H80V-82zM80 -82V718V-82z" />
    <glyph glyph-name="5mp-fill"
      unicode="&#xE056;"
      horiz-adv-x="960" d=" M337.3333333333333 358H564V539.3333333333333H404V611.3333333333333H564V678H337.3333333333333V495.3333333333333H497.3333333333333V424.6666666666667H337.3333333333333V358zM150.6666666666666 -42H217.3333333333333V211.3333333333333H288V42H354.6666666666667V211.3333333333333H434.6666666666667V-42H501.3333333333333V278H150.6666666666666V-42zM581.3333333333333 -42H647.9999999999999V42H807.9999999999999V278H581.3333333333333V-42zM647.9999999999999 108.6666666666666V211.3333333333333H741.3333333333333V108.6666666666666H647.9999999999999zM0 -162V798H960V-162H0z" />
    <glyph glyph-name="6-ft-apart"
      unicode="&#xE057;"
      horiz-adv-x="960" d=" M246 -162V18H378V-18H282V-54H378V-162H246zM462 -162V18H570V-18H498V-54H546V-90H498V-162H462zM654 -162V-18H606V18H738V-18H690V-162H654zM282 -126H342V-90H282V-126zM144 80.4L0 224.4L144 368.4L186 326.4L120 260.4H840L774 326.4L816 368.4L960 224.4L816 80.4L774 122.4L840 188.4H120L186 122.4L144 80.4zM0 432V447.6Q0 472.896 13.692 493.98T51.6 525.6Q81.696 538.224 113.52 545.1120000000001Q145.356 552 180.072 552Q214.8 552 246.576 545.1120000000001T308.4 525.6Q332.616 515.0640000000001 346.308 493.98T360 447.6V432H0zM600 432V447.6Q600 472.896 613.692 493.98T651.6 525.6Q681.696 538.224 713.52 545.1120000000001Q745.356 552 780.072 552Q814.8 552 846.576 545.1120000000001T908.4 525.6Q932.616 515.0640000000001 946.308 493.98T960 447.6V432H600zM179.952 618Q142.8 618 116.4 644.448Q90 670.908 90 708.048Q90 745.2 116.448 771.6Q142.908 798 180.048 798Q217.2 798 243.6 771.552Q270 745.0920000000001 270 707.952Q270 670.8 243.552 644.4Q217.092 618 179.952 618zM779.952 618Q742.8 618 716.4 644.448Q690 670.908 690 708.048Q690 745.2 716.448 771.6Q742.908 798 780.048 798Q817.1999999999999 798 843.5999999999999 771.552Q869.9999999999999 745.0920000000001 869.9999999999999 707.952Q870 670.8 843.552 644.4Q817.092 618 779.952 618z" />
    <glyph glyph-name="60fps-select"
      unicode="&#xE058;"
      horiz-adv-x="960" d=" M64 264.6666666666668V798H414.6666666666667V718H144V571.3333333333334H414.6666666666667V264.6666666666668H64zM144 344.6666666666668H334.6666666666667V491.3333333333334H144V344.6666666666668zM548 264.6666666666668V798H898.6666666666666V264.6666666666668H548zM628 344.6666666666668H818.6666666666666V718H628V344.6666666666668zM0 -162V88.6666666666666H80V-162H0zM160 -162V88.6666666666666H240V-162H160zM320 -162V88.6666666666666H400V-162H320zM480 -162V88.6666666666666H960V-162H480z" />
    <glyph glyph-name="60fps"
      unicode="&#xE059;"
      horiz-adv-x="960" d=" M0 -18V654H350.4V558H96V392.4H402V-18H0zM96 78H306V296.4H96V78zM602.4 78H864V558H602.4V78zM506.4 -18V654H960V-18H506.4z" />
    <glyph glyph-name="6k-plus"
      unicode="&#xE05A;"
      horiz-adv-x="960" d=" M150.6666666666666 158H373.3333333333333V339.3333333333333H217.3333333333333V411.3333333333333H373.3333333333333V478H150.6666666666666V158zM217.3333333333333 202V295.3333333333333H306.6666666666667V202H217.3333333333333zM461.3333333333333 158H527.9999999999999V278L639.9999999999999 158H727.9999999999999L578.6666666666666 318L728 478H640L528 358V478H461.3333333333334V158zM741.3333333333333 211.3333333333334H794.6666666666666V295.3333333333334H880V339.3333333333334H794.6666666666666V424.6666666666667H741.3333333333333V339.3333333333334H657.3333333333333V295.3333333333334H741.3333333333333V211.3333333333334zM0 -162V798H960V-162H0zM80 -82H880V718H80V-82zM80 -82V718V-82z" />
    <glyph glyph-name="6k-plus-fill"
      unicode="&#xE05B;"
      horiz-adv-x="960" d=" M150.6666666666666 158H373.3333333333333V339.3333333333333H217.3333333333333V411.3333333333333H373.3333333333333V478H150.6666666666666V158zM217.3333333333333 202V295.3333333333333H306.6666666666667V202H217.3333333333333zM461.3333333333333 158H527.9999999999999V278L639.9999999999999 158H727.9999999999999L578.6666666666666 318L728 478H640L528 358V478H461.3333333333334V158zM741.3333333333333 211.3333333333334H794.6666666666666V295.3333333333334H880V339.3333333333334H794.6666666666666V424.6666666666667H741.3333333333333V339.3333333333334H657.3333333333333V295.3333333333334H741.3333333333333V211.3333333333334zM0 -162V798H960V-162H0z" />
    <glyph glyph-name="6k"
      unicode="&#xE05C;"
      horiz-adv-x="960" d=" M533.3333333333333 158H599.9999999999999V278L711.9999999999999 158H799.9999999999999L650.6666666666666 318L800 478H712L600 358V478H533.3333333333334V158zM181.3333333333333 158H407.9999999999999V339.3333333333333H248V411.3333333333333H408V478H181.3333333333333V158zM247.9999999999999 202V295.3333333333333H341.3333333333333V202H248zM0 -162V798H960V-162H0zM80 -82H880V718H80V-82zM80 -82V718V-82z" />
    <glyph glyph-name="6k-fill"
      unicode="&#xE05D;"
      horiz-adv-x="960" d=" M533.3333333333333 158H599.9999999999999V278L711.9999999999999 158H799.9999999999999L650.6666666666666 318L800 478H712L600 358V478H533.3333333333334V158zM181.3333333333333 158H407.9999999999999V339.3333333333333H248V411.3333333333333H408V478H181.3333333333333V158zM247.9999999999999 202V295.3333333333333H341.3333333333333V202H248zM0 -162V798H960V-162H0z" />
    <glyph glyph-name="6mp"
      unicode="&#xE05E;"
      horiz-adv-x="960" d=" M337.3333333333333 358H564V539.3333333333333H404V611.3333333333333H564V678H337.3333333333333V358zM404 402V495.3333333333333H497.3333333333333V402H404zM150.6666666666666 -42H217.3333333333333V211.3333333333333H288V42H354.6666666666667V211.3333333333333H434.6666666666667V-42H501.3333333333333V278H150.6666666666666V-42zM581.3333333333333 -42H647.9999999999999V42H807.9999999999999V278H581.3333333333333V-42zM647.9999999999999 108.6666666666666V211.3333333333333H741.3333333333333V108.6666666666666H647.9999999999999zM0 -162V798H960V-162H0zM80 -82H880V718H80V-82zM80 -82V718V-82z" />
    <glyph glyph-name="6mp-fill"
      unicode="&#xE05F;"
      horiz-adv-x="960" d=" M337.3333333333333 358H564V539.3333333333333H404V611.3333333333333H564V678H337.3333333333333V358zM404 402V495.3333333333333H497.3333333333333V402H404zM150.6666666666666 -42H217.3333333333333V211.3333333333333H288V42H354.6666666666667V211.3333333333333H434.6666666666667V-42H501.3333333333333V278H150.6666666666666V-42zM581.3333333333333 -42H647.9999999999999V42H807.9999999999999V278H581.3333333333333V-42zM647.9999999999999 108.6666666666666V211.3333333333333H741.3333333333333V108.6666666666666H647.9999999999999zM0 -162V798H960V-162H0z" />
    <glyph glyph-name="7k-plus"
      unicode="&#xE060;"
      horiz-adv-x="960" d=" M204 158H281.3333333333333L368 414V478H134.6666666666666V411.3333333333334H290.6666666666667L204 158zM461.3333333333333 158H528V278L640 158H728L578.6666666666666 318L728 478H640L528 358V478H461.3333333333334V158zM741.3333333333333 211.3333333333334H794.6666666666666V295.3333333333334H880V339.3333333333334H794.6666666666666V424.6666666666667H741.3333333333333V339.3333333333334H657.3333333333333V295.3333333333334H741.3333333333333V211.3333333333334zM0 -162V798H960V-162H0zM80 -82H880V718H80V-82zM80 -82V718V-82z" />
    <glyph glyph-name="7k-plus-fill"
      unicode="&#xE061;"
      horiz-adv-x="960" d=" M204 158H281.3333333333333L368 414V478H134.6666666666666V411.3333333333334H290.6666666666667L204 158zM461.3333333333333 158H528V278L640 158H728L578.6666666666666 318L728 478H640L528 358V478H461.3333333333334V158zM741.3333333333333 211.3333333333334H794.6666666666666V295.3333333333334H880V339.3333333333334H794.6666666666666V424.6666666666667H741.3333333333333V339.3333333333334H657.3333333333333V295.3333333333334H741.3333333333333V211.3333333333334zM0 -162V798H960V-162H0z" />
    <glyph glyph-name="7k"
      unicode="&#xE062;"
      horiz-adv-x="960" d=" M533.3333333333333 158H599.9999999999999V278L711.9999999999999 158H799.9999999999999L650.6666666666666 318L800 478H712L600 358V478H533.3333333333334V158zM250.6666666666667 158H328L414.6666666666667 414V478H181.3333333333333V411.3333333333334H337.3333333333333L250.6666666666667 158zM0 -162V798H960V-162H0zM80 -82H880V718H80V-82zM80 -82V718V-82z" />
    <glyph glyph-name="7k-fill"
      unicode="&#xE063;"
      horiz-adv-x="960" d=" M533.3333333333333 158H599.9999999999999V278L711.9999999999999 158H799.9999999999999L650.6666666666666 318L800 478H712L600 358V478H533.3333333333334V158zM250.6666666666667 158H328L414.6666666666667 414V478H181.3333333333333V411.3333333333334H337.3333333333333L250.6666666666667 158zM0 -162V798H960V-162H0z" />
    <glyph glyph-name="7mp"
      unicode="&#xE064;"
      horiz-adv-x="960" d=" M414.6666666666667 358H487.9999999999999L569.3333333333333 614V678H337.3333333333333V611.3333333333334H490.6666666666666L414.6666666666667 358zM150.6666666666666 -42H217.3333333333333V211.3333333333333H288V42H354.6666666666667V211.3333333333333H434.6666666666667V-42H501.3333333333333V278H150.6666666666666V-42zM581.3333333333333 -42H647.9999999999999V42H807.9999999999999V278H581.3333333333333V-42zM647.9999999999999 108.6666666666666V211.3333333333333H741.3333333333333V108.6666666666666H647.9999999999999zM0 -162V798H960V-162H0zM80 -82H880V718H80V-82zM80 -82V718V-82z" />
    <glyph glyph-name="7mp-fill"
      unicode="&#xE065;"
      horiz-adv-x="960" d=" M414.6666666666667 358H487.9999999999999L569.3333333333333 614V678H337.3333333333333V611.3333333333334H490.6666666666666L414.6666666666667 358zM150.6666666666666 -42H217.3333333333333V211.3333333333333H288V42H354.6666666666667V211.3333333333333H434.6666666666667V-42H501.3333333333333V278H150.6666666666666V-42zM581.3333333333333 -42H647.9999999999999V42H807.9999999999999V278H581.3333333333333V-42zM647.9999999999999 108.6666666666666V211.3333333333333H741.3333333333333V108.6666666666666H647.9999999999999zM0 -162V798H960V-162H0z" />
    <glyph glyph-name="8k-plus"
      unicode="&#xE066;"
      horiz-adv-x="960" d=" M150.6666666666666 158H377.3333333333333V478H150.6666666666666V158zM217.3333333333333 202V295.3333333333333H310.6666666666667V202H217.3333333333333zM217.3333333333333 339.3333333333333V434H310.6666666666667V339.3333333333334H217.3333333333333zM461.3333333333333 158H527.9999999999999V278L639.9999999999999 158H727.9999999999999L578.6666666666666 318L728 478H640L528 358V478H461.3333333333334V158zM741.3333333333333 211.3333333333334H794.6666666666666V295.3333333333334H880V339.3333333333334H794.6666666666666V424.6666666666667H741.3333333333333V339.3333333333334H657.3333333333333V295.3333333333334H741.3333333333333V211.3333333333334zM0 -162V798H960V-162H0zM80 -82H880V718H80V-82zM80 -82V718V-82z" />
    <glyph glyph-name="8k-plus-fill"
      unicode="&#xE067;"
      horiz-adv-x="960" d=" M150.6666666666666 158H377.3333333333333V478H150.6666666666666V158zM217.3333333333333 202V295.3333333333333H310.6666666666667V202H217.3333333333333zM217.3333333333333 339.3333333333333V434H310.6666666666667V339.3333333333334H217.3333333333333zM461.3333333333333 158H527.9999999999999V278L639.9999999999999 158H727.9999999999999L578.6666666666666 318L728 478H640L528 358V478H461.3333333333334V158zM741.3333333333333 211.3333333333334H794.6666666666666V295.3333333333334H880V339.3333333333334H794.6666666666666V424.6666666666667H741.3333333333333V339.3333333333334H657.3333333333333V295.3333333333334H741.3333333333333V211.3333333333334zM0 -162V798H960V-162H0z" />
    <glyph glyph-name="8k"
      unicode="&#xE068;"
      horiz-adv-x="960" d=" M533.3333333333333 158H599.9999999999999V278L711.9999999999999 158H799.9999999999999L650.6666666666666 318L800 478H712L600 358V478H533.3333333333334V158zM181.3333333333333 158H407.9999999999999V478H181.3333333333333V158zM247.9999999999999 339.3333333333333V434H341.3333333333333V339.3333333333334H248zM247.9999999999999 202V295.3333333333333H341.3333333333333V202H248zM0 -162V798H960V-162H0zM80 -82H880V718H80V-82zM80 -82V718V-82z" />
    <glyph glyph-name="8k-fill"
      unicode="&#xE069;"
      horiz-adv-x="960" d=" M533.3333333333333 158H599.9999999999999V278L711.9999999999999 158H799.9999999999999L650.6666666666666 318L800 478H712L600 358V478H533.3333333333334V158zM181.3333333333333 158H407.9999999999999V478H181.3333333333333V158zM247.9999999999999 339.3333333333333V434H341.3333333333333V339.3333333333334H248zM247.9999999999999 202V295.3333333333333H341.3333333333333V202H248zM0 -162V798H960V-162H0z" />
    <glyph glyph-name="8mp"
      unicode="&#xE06A;"
      horiz-adv-x="960" d=" M337.3333333333333 358H564V678H337.3333333333333V358zM404 539.3333333333333V624.6666666666666H497.3333333333333V539.3333333333333H404zM404 402V495.3333333333333H497.3333333333333V402H404zM150.6666666666666 -42H217.3333333333333V211.3333333333333H288V42H354.6666666666667V211.3333333333333H434.6666666666667V-42H501.3333333333333V278H150.6666666666666V-42zM581.3333333333333 -42H647.9999999999999V42H807.9999999999999V278H581.3333333333333V-42zM647.9999999999999 108.6666666666666V211.3333333333333H741.3333333333333V108.6666666666666H647.9999999999999zM0 -162V798H960V-162H0zM80 -82H880V718H80V-82zM80 -82V718V-82z" />
    <glyph glyph-name="8mp-fill"
      unicode="&#xE06B;"
      horiz-adv-x="960" d=" M337.3333333333333 358H564V678H337.3333333333333V358zM404 539.3333333333333V624.6666666666666H497.3333333333333V539.3333333333333H404zM404 402V495.3333333333333H497.3333333333333V402H404zM150.6666666666666 -42H217.3333333333333V211.3333333333333H288V42H354.6666666666667V211.3333333333333H434.6666666666667V-42H501.3333333333333V278H150.6666666666666V-42zM581.3333333333333 -42H647.9999999999999V42H807.9999999999999V278H581.3333333333333V-42zM647.9999999999999 108.6666666666666V211.3333333333333H741.3333333333333V108.6666666666666H647.9999999999999zM0 -162V798H960V-162H0z" />
    <glyph glyph-name="9k-plus"
      unicode="&#xE06C;"
      horiz-adv-x="960" d=" M150.6666666666666 158H377.3333333333333V478H150.6666666666666V295.3333333333334H310.6666666666667V224.6666666666668H150.6666666666666V158.0000000000001zM217.3333333333333 339.3333333333333V434H310.6666666666667V339.3333333333334H217.3333333333333zM461.3333333333333 158H527.9999999999999V278L639.9999999999999 158H727.9999999999999L578.6666666666666 318L728 478H640L528 358V478H461.3333333333334V158zM741.3333333333333 211.3333333333334H794.6666666666666V295.3333333333334H880V339.3333333333334H794.6666666666666V424.6666666666667H741.3333333333333V339.3333333333334H657.3333333333333V295.3333333333334H741.3333333333333V211.3333333333334zM0 -162V798H960V-162H0zM80 -82H880V718H80V-82zM80 -82V718V-82z" />
    <glyph glyph-name="9k-plus-fill"
      unicode="&#xE06D;"
      horiz-adv-x="960" d=" M150.6666666666666 158H377.3333333333333V478H150.6666666666666V295.3333333333334H310.6666666666667V224.6666666666668H150.6666666666666V158.0000000000001zM217.3333333333333 339.3333333333333V432.6666666666667H310.6666666666667V339.3333333333333H217.3333333333333zM461.3333333333333 158H527.9999999999999V278L639.9999999999999 158H727.9999999999999L578.6666666666666 318L728 478H640L528 358V478H461.3333333333334V158zM741.3333333333333 211.3333333333334H794.6666666666666V295.3333333333334H880V339.3333333333334H794.6666666666666V424.6666666666667H741.3333333333333V339.3333333333334H657.3333333333333V295.3333333333334H741.3333333333333V211.3333333333334zM0 -162V798H960V-162H0z" />
    <glyph glyph-name="9k"
      unicode="&#xE06E;"
      horiz-adv-x="960" d=" M190.6666666666666 158H417.3333333333333V478H190.6666666666666V295.3333333333334H350.6666666666667V224.6666666666668H190.6666666666666V158.0000000000001zM257.3333333333333 339.3333333333333V434H350.6666666666666V339.3333333333334H257.3333333333333zM533.3333333333333 158H599.9999999999999V278L711.9999999999999 158H799.9999999999999L650.6666666666666 318L800 478H712L600 358V478H533.3333333333334V158zM0 -162V798H960V-162H0zM80 -82H880V718H80V-82zM80 -82V718V-82z" />
    <glyph glyph-name="9k-fill"
      unicode="&#xE06F;"
      horiz-adv-x="960" d=" M190.6666666666666 158H417.3333333333333V478H190.6666666666666V295.3333333333334H350.6666666666667V224.6666666666668H190.6666666666666V158.0000000000001zM257.3333333333333 339.3333333333333V432.6666666666667H350.6666666666666V339.3333333333333H257.3333333333333zM533.3333333333333 158H599.9999999999999V278L711.9999999999999 158H799.9999999999999L650.6666666666666 318L800 478H712L600 358V478H533.3333333333334V158zM0 -162V798H960V-162H0z" />
    <glyph glyph-name="9mp"
      unicode="&#xE070;"
      horiz-adv-x="960" d=" M337.3333333333333 358H564V678H337.3333333333333V495.3333333333334H497.3333333333333V424.6666666666668H337.3333333333333V358.0000000000001zM404 539.3333333333333V624.6666666666666H497.3333333333333V539.3333333333333H404zM150.6666666666666 -42H217.3333333333333V211.3333333333333H288V42H354.6666666666667V211.3333333333333H434.6666666666667V-42H501.3333333333333V278H150.6666666666666V-42zM581.3333333333333 -42H647.9999999999999V42H807.9999999999999V278H581.3333333333333V-42zM647.9999999999999 108.6666666666666V211.3333333333333H741.3333333333333V108.6666666666666H647.9999999999999zM0 -162V798H960V-162H0zM80 -82H880V718H80V-82zM80 -82V718V-82z" />
    <glyph glyph-name="9mp-fill"
      unicode="&#xE071;"
      horiz-adv-x="960" d=" M337.3333333333333 358H564V678H337.3333333333333V495.3333333333334H497.3333333333333V424.6666666666668H337.3333333333333V358.0000000000001zM404 539.3333333333333V624.6666666666666H497.3333333333333V539.3333333333333H404zM150.6666666666666 -42H217.3333333333333V211.3333333333333H288V42H354.6666666666667V211.3333333333333H434.6666666666667V-42H501.3333333333333V278H150.6666666666666V-42zM581.3333333333333 -42H647.9999999999999V42H807.9999999999999V278H581.3333333333333V-42zM647.9999999999999 108.6666666666666V211.3333333333333H741.3333333333333V108.6666666666666H647.9999999999999zM0 -162V798H960V-162H0z" />
    <glyph glyph-name="abc"
      unicode="&#xE072;"
      horiz-adv-x="960" d=" M684 158V478H960V371.3333333333334H896V414.0000000000001H748V222H896V264.6666666666667H960V158H684zM346.6666666666667 158V478H590.6666666666667L622.6666666666667 446V350L590.6666666666667 318L622.6666666666667 286V190L590.6666666666667 158H346.6666666666667zM410.6666666666667 350H558.6666666666667V414H410.6666666666667V350zM410.6666666666667 222H558.6666666666667V286H410.6666666666667V222zM1e-13 158V478H276.0000000000001V158H212.0000000000001V260.6666666666667H64V158H0zM64.0000000000001 324.6666666666667H212.0000000000001V414H64V324.6666666666667z" />
    <glyph glyph-name="accessible-forward"
      unicode="&#xE073;"
      horiz-adv-x="960" d=" M331.9261538461539 -162Q234.4615384615384 -162 164.3076923076923 -91.8461538461539T94.1538461538461 75.5384615384614Q94.1538461538461 172.7692307692307 164.3076923076923 242.9230769230768T331.6923076923077 313.076923076923V239.2307692307692Q265.2307692307693 239.2307692307692 216.6153846153846 190.6153846153845T168 75.5384615384616Q168 9.0769230769231 216.6153846153846 -39.5384615384615T331.6923076923076 -88.1538461538462Q398.1538461538461 -88.1538461538462 445.5384615384615 -42T492.9230769230769 89.0769230769231H566.7692307692307Q566.7692307692307 -25.3846153846154 498.0799999999999 -93.6923076923076Q429.3784615384615 -161.9999999999999 331.9261538461538 -161.9999999999999zM792 -112.7692307692307V126H369.8461538461538L336.6153846153846 177.6923076923077L485.5384615384615 505.0769230769232H369.8461538461539L336.6153846153847 415.2307692307693L262.7692307692308 439.8461538461539L313.9323076923077 578.923076923077H600.2461538461539Q649.2307692307693 578.923076923077 676.923076923077 539.5384615384617T684.923076923077 458.3076923076924L574.1538461538462 223.2307692307693H865.8461538461539V-112.7692307692307H792.0000000000001zM724.4061538461539 618.3076923076924Q687.3846153846154 618.3076923076924 660.9230769230769 644.6707692307693T634.4615384615385 708.0553846153847Q634.4615384615385 745.0769230769232 660.8246153846154 771.5384615384617T724.2092307692308 798.0000000000001Q761.2307692307693 798.0000000000001 787.6923076923077 771.6369230769232T814.1538461538462 708.2523076923078Q814.1538461538462 671.2307692307693 787.7907692307692 644.7692307692308T724.4061538461539 618.3076923076924z" />
    <glyph glyph-name="accessible-menu"
      unicode="&#xE074;"
      horiz-adv-x="960" d=" M475.6799999999999 613.578947368421Q437.6842105263157 613.578947368421 410.5263157894737 640.6357894736842T383.3684210526316 705.6884210526316Q383.3684210526316 743.6842105263158 410.4252631578948 770.8421052631579T475.4778947368421 798Q513.4736842105264 798 540.6315789473684 770.9431578947368T567.7894736842105 705.8905263157894Q567.7894736842105 667.8947368421052 540.7326315789473 640.7368421052631T475.6799999999999 613.578947368421zM378.0884210526316 -162Q361.8947368421052 -162 351.1578947368421 -151.098947368421Q340.4210526315789 -140.2105263157895 340.4210526315789 -124.1052631578947V460.4084210526316Q257.0526315789474 467.0526315789473 189.4736842105264 475.8947368421053T62.5263157894737 497.3684210526316Q41.4947368421053 502.1052631578947 34.3326315789474 516.7957894736842Q27.1578947368422 531.4736842105262 29.6842105263158 545.3684210526316Q32.2105263157895 559.2631578947369 43.5789473684211 569.3684210526316T72.6315789473685 575.6842105263158Q163.7936842105264 555.4736842105262 263.5326315789474 546Q363.2842105263159 536.5263157894738 475.578947368421 536.5263157894738T687.6252631578948 546Q787.3642105263158 555.4736842105262 878.5263157894736 575.6842105263158Q896.2105263157895 579.4736842105262 907.3263157894736 569.3178947368422T921.221052631579 545.3178947368422Q924 531.4736842105262 917.0526315789472 516.9473684210527T888.6315789473684 497.3684210526316Q829.2631578947369 484.7368421052631 761.6842105263158 475.8947368421053T610.7368421052631 460.4084210526316V-124.1052631578948Q610.7368421052631 -140.2105263157895 599.7726315789473 -151.0989473684211Q588.8210526315789 -162.0000000000001 572.6147368421052 -162.0000000000001Q556.421052631579 -162.0000000000001 545.6842105263157 -151.0989473684211Q534.9473684210526 -140.2105263157896 534.9473684210526 -124.1052631578948V166.4210526315789H416.2105263157895V-124.1052631578948Q416.2105263157895 -140.2105263157895 405.2463157894737 -151.0989473684211Q394.2947368421053 -162.0000000000001 378.0884210526316 -162.0000000000001zM882.4547368421051 252.3157894736842Q862.1052631578947 252.3157894736842 848.2105263157895 266.0715789473684Q834.3157894736842 279.8399999999999 834.3157894736842 300.1768421052631Q834.3157894736842 320.5263157894737 848.0715789473684 334.4210526315789Q861.8399999999999 348.3157894736842 882.1768421052631 348.3157894736842Q902.5263157894738 348.3157894736842 916.421052631579 334.56Q930.3157894736842 320.7915789473684 930.3157894736842 300.4547368421053Q930.3157894736842 280.1052631578948 916.56 266.2105263157896Q902.7915789473684 252.3157894736843 882.4547368421053 252.3157894736843zM882.4547368421051 45.1578947368421Q862.1052631578947 45.1578947368421 848.2105263157895 58.9136842105263Q834.3157894736842 72.6821052631578 834.3157894736842 93.018947368421Q834.3157894736842 113.3684210526317 848.0715789473684 127.2631578947369Q861.8399999999999 141.1578947368422 882.1768421052631 141.1578947368422Q902.5263157894738 141.1578947368421 916.421052631579 127.4021052631579Q930.3157894736842 113.6336842105263 930.3157894736842 93.2968421052632Q930.3157894736842 72.9473684210527 916.56 59.0526315789473Q902.7915789473684 45.157894736842 882.4547368421053 45.157894736842zM882.4547368421051 -162Q862.1052631578947 -162 848.2105263157895 -148.2442105263158Q834.3157894736842 -134.4757894736842 834.3157894736842 -114.1389473684211Q834.3157894736842 -93.7894736842104 848.0715789473684 -79.8947368421052Q861.8399999999999 -65.9999999999999 882.1768421052631 -65.9999999999999Q902.5263157894738 -66 916.421052631579 -79.7557894736842Q930.3157894736842 -93.5242105263157 930.3157894736842 -113.8610526315789Q930.3157894736842 -134.2105263157896 916.56 -148.1052631578948Q902.7915789473684 -162.0000000000001 882.4547368421053 -162.0000000000001z" />
    <glyph glyph-name="accessible"
      unicode="&#xE075;"
      horiz-adv-x="960" d=" M482.4 622.8Q446.4 622.8 420.6 648.6T394.8 710.4Q394.8 746.4 420.6 772.2T482.4 798Q518.4 798 544.1999999999999 772.2T570 710.4Q570 674.4 544.2 648.6T482.4 622.8zM739.1999999999999 -162V88.8H396V471.6Q396 507.6 421.2 532.8T482.4 558Q510 558 529.1999999999999 547.1999999999999T574.8 505.1999999999999Q625.1999999999999 446.3999999999999 685.1999999999999 406.8T815.9999999999999 364.8V292.8Q754.7999999999998 292.8 689.9999999999999 322.8T565.1999999999999 403.2V183.5999999999999H811.1999999999999V-162H739.1999999999999zM379.2 -162Q279.5999999999999 -162 211.7999999999999 -94.2T144 73.2000000000001Q144 154.8000000000001 203.4 223.8000000000001T360 303.6V230.4Q295.2 224.4 256.2 177T217.2 73.2000000000001Q217.2 3.6 263.4 -43.1999999999999T379.2 -89.9999999999999Q435.6 -89.9999999999999 483.6 -50.9999999999999T536.4 52.8000000000001H609.6Q600 -43.1999999999999 530.4 -102.5999999999999T379.2 -162z" />
    <glyph glyph-name="account-balance-wallet"
      unicode="&#xE076;"
      horiz-adv-x="960" d=" M75.5905511811024 6.8188976377952V-59.9527559055118V695.9527559055118V6.8188976377953zM907.0866141732284 527.1338582677165H831.496062992126V695.9527559055118H75.5905511811024V-59.9527559055118H831.496062992126V107.6062992125984H907.0866141732284V-135.5433070866142H0V771.5433070866142H907.0866141732284V527.1338582677165zM433.3858267716536 82.4094488188976V552.3307086614172H960V82.4094488188976H433.3858267716536zM670.5385826771653 237.3700787401574Q704.251968503937 237.3700787401574 727.5590551181102 261.2566929133858Q750.8661417322835 285.1433070866142 750.8661417322835 319.259842519685Q750.8661417322835 352.3307086614173 726.9291338582677 375.4866141732283Q702.992125984252 398.6299212598425 670.236220472441 398.6299212598425T613.5433070866143 375.4866141732283Q589.6062992125985 352.3307086614173 589.6062992125985 319.259842519685Q589.6062992125985 285.1433070866141 613.2157480314961 261.2566929133858Q636.8125984251969 237.3700787401574 670.5385826771654 237.3700787401574zM884.4094488188978 158V476.740157480315H508.9763779527559V158H884.4094488188977z" />
    <glyph glyph-name="account-balance-wallet-fill"
      unicode="&#xE077;"
      horiz-adv-x="960" d=" M0 -136.1392904073588V772.1392904073587H908.2785808147174V628.3285151116951H358.2654402102497V6.4099868593955H908.2785808147177V-136.1392904073588H0zM433.9553219448095 82.0998685939553V552.6386333771353H960V82.0998685939553H433.9553219448095zM671.1169513797635 237.2641261498029Q702.6544021024968 237.2641261498029 727.2536136662286 261.8633377135349T751.8528252299606 318.6307490144547Q751.8528252299606 350.7989487516427 727.2536136662286 374.7674113009199T671.1169513797635 398.7358738501971Q639.5795006570302 398.7358738501971 614.9802890932983 374.7674113009199T590.3810775295664 318.6307490144547Q590.3810775295664 286.4625492772667 614.9802890932983 261.8633377135348T671.1169513797635 237.2641261498029z" />
    <glyph glyph-name="account-box"
      unicode="&#xE078;"
      horiz-adv-x="960" d=" M80 -32.6666666666666Q160 42 261.2 88Q362.3866666666667 134 479.8666666666667 134Q597.3333333333334 134 698.6666666666666 88T880 -32.6666666666666V718H80V-32.6666666666666zM482.6666666666666 239.3333333333334Q560 239.3333333333334 613.3333333333333 292.6666666666667T666.6666666666666 423.3333333333334Q666.6666666666666 500.6666666666667 613.3333333333333 554T482.6666666666666 607.3333333333334Q405.3333333333333 607.3333333333334 352 554T298.6666666666667 423.3333333333334Q298.6666666666667 346.0000000000001 352 292.6666666666668T482.6666666666666 239.3333333333334zM0 -162V798H960V-162H0zM482.6666666666666 319.3333333333333Q439.3333333333333 319.3333333333333 409 349.6666666666667T378.6666666666667 423.3333333333334Q378.6666666666667 466.6666666666667 409 497T482.6666666666666 527.3333333333334Q526 527.3333333333334 556.3333333333333 497.0000000000001T586.6666666666666 423.3333333333334Q586.6666666666666 380.0000000000001 556.3333333333333 349.6666666666668T482.6666666666666 319.3333333333334zM479.9999999999999 343.3333333333333zM137.3333333333333 -82H821.3333333333333Q738.6666666666666 -11.3333333333334 654 21.3333333333334T480 54Q390.6666666666667 54 306 21.3333333333334T137.3333333333333 -82z" />
    <glyph glyph-name="account-box-fill"
      unicode="&#xE079;"
      horiz-adv-x="960" d=" M482.6666666666666 212.6666666666668Q560 212.6666666666668 613.3333333333333 266.0000000000001T666.6666666666666 396.6666666666668Q666.6666666666666 474.0000000000001 613.3333333333333 527.3333333333334T482.6666666666666 580.6666666666667Q405.3333333333333 580.6666666666667 352 527.3333333333334T298.6666666666667 396.6666666666668Q298.6666666666667 319.3333333333335 352 266.0000000000001T482.6666666666666 212.6666666666668zM0 -162V798H960V-162H0zM80 -82H880V-32.6666666666666Q800 42 698.8 88Q597.6133333333332 134 480.1333333333333 134Q362.6666666666667 134 261.3333333333334 88T80 -32.6666666666666V-82z" />
    <glyph glyph-name="ad-group-off"
      unicode="&#xE07A;"
      horiz-adv-x="960" d=" M904.7238542890718 32.0305522914218L838.1668625146887 98.5875440658049H892.3149236192716V662.6298472385429H274.1245593419507L194.0305522914219 742.7238542890717V798H960V32.0305522914218H904.7238542890718zM908.1081081081082 -162L715.2056404230318 30.9024676850764H192.9024676850764V553.2056404230318L0 746.1081081081081L47.37955346651 793.4876615746181L955.4876615746182 -114.62044653349L908.1081081081082 -162zM260.587544065805 98.587544065805H647.5205640423032L260.587544065805 485.5205640423032V98.5875440658049zM57.5323149236193 -104.4676850763807V662.6298472385429H125.2173913043479V-36.7826086956522H824.629847238543V-104.4676850763808H57.5323149236193zM455.7461809635723 289.2338425381904zM552.7614571092832 383.9929494712104z" />
    <glyph glyph-name="ad-group-off-fill"
      unicode="&#xE07B;"
      horiz-adv-x="960" d=" M908.1081081081082 -162L715.2056404230318 30.9024676850764H192.9024676850764V553.2056404230318L0 746.1081081081081L47.37955346651 793.4876615746181L955.4876615746182 -114.62044653349L908.1081081081082 -162zM57.5323149236193 -104.4676850763807V662.6298472385429H125.2173913043479V-36.7826086956522H824.629847238543V-104.4676850763808H57.5323149236193zM904.7238542890718 32.0305522914218L274.1245593419507 662.6298472385429H892.3149236192714V730.3149236192714H260.587544065805V676.1668625146887L194.0305522914219 742.7238542890717V798H960.0000000000002V32.0305522914218H904.7238542890718z" />
    <glyph glyph-name="ad-group"
      unicode="&#xE07C;"
      horiz-adv-x="960" d=" M216 54H888V654H216V54zM144 -18V798H960V-18H144zM0 -162V654H72V-90H816V-162H0zM216 54V726V54z" />
    <glyph glyph-name="ad-group-fill"
      unicode="&#xE07D;"
      horiz-adv-x="960" d=" M144 -18V798H960V-18H144zM0 -162V654H72V-90H816V-162H0zM216 654H888V726H216V654z" />
    <glyph glyph-name="ad-off"
      unicode="&#xE07E;"
      horiz-adv-x="960" d=" M907.8787878787878 -162L830.3030303030303 -84.4242424242424H65.4545454545455V680.4242424242425L0 745.878787878788L52.1212121212121 798.0000000000001L960 -109.878787878788L907.8787878787878 -162.0000000000001zM138.1818181818182 -11.6969696969697H757.5757575757575L138.1818181818182 608.9090909090909V-11.6969696969697zM938.1818181818182 14.9696969696969L865.4545454545455 87.6969696969696V598H355.1515151515152L164.8484848484849 788.3030303030303H938.1818181818182V14.9696969696969z" />
    <glyph glyph-name="ad"
      unicode="&#xE07F;"
      horiz-adv-x="960" d=" M0 -162V798H960V-162H0zM80 -82H880V588.6666666666666H80V-82z" />
    <glyph glyph-name="add-a-photo"
      unicode="&#xE080;"
      horiz-adv-x="960" d=" M432.9199549041714 224.3810597519729H551.9729425028185H432.9199549041714zM0 -118.7080045095829V566.3878241262682H224.0360766629087L303.04396843292 660.5479143179255H599.5941375422774V595.6099210822998H333.3483652762119L254.3404735062006 501.4498308906425H64.9379932356257V-53.7700112739571H800.901916572717V394.3021420518602H865.8399098083428V-118.7080045095829H0zM800.901916572717 502.5321307779029V595.6099210822997H707.8241262683202V660.5479143179255H800.901916572717V754.7080045095827H865.8399098083428V660.5479143179255H960V595.6099210822997H865.8399098083428V502.5321307779029H800.901916572717zM432.3788049605411 40.3900789177001Q510.8455467869222 40.3900789177001 563.8782412626831 93.4227733934611T616.9109357384441 224.9222096956031Q616.9109357384441 303.3889515219842 563.8782412626831 355.880496054115T432.3788049605411 408.3720405862458Q353.9120631341601 408.3720405862458 301.4205186020293 355.880496054115T248.9289740698985 224.9222096956032Q248.9289740698985 146.4554678692222 301.4205186020293 93.4227733934612T432.3788049605411 40.3900789177002zM432.3788049605411 105.3280721533258Q380.9695603156708 105.3280721533258 347.4182638105975 139.4205186020294T313.8669673055242 224.9222096956032Q313.8669673055242 276.3314543404736 347.4182638105975 309.8827508455469T432.3788049605412 343.4340473506202Q483.7880496054115 343.4340473506202 517.880496054115 309.8827508455469T551.9729425028186 224.9222096956032Q551.9729425028186 173.5129650507329 517.880496054115 139.4205186020294T432.3788049605412 105.3280721533258z" />
    <glyph glyph-name="add-a-photo-fill"
      unicode="&#xE081;"
      horiz-adv-x="960" d=" M800.901916572717 502.532130777903V595.6099210822999H707.8241262683202V660.5479143179256H800.901916572717V754.7080045095828H865.8399098083428V660.5479143179256H960V595.6099210822999H865.8399098083428V502.532130777903H800.901916572717zM432.3788049605411 40.3900789177001Q510.8455467869222 40.3900789177001 563.8782412626831 93.4227733934611T616.9109357384441 224.9222096956031Q616.9109357384441 303.3889515219842 563.8782412626831 355.880496054115T432.3788049605411 408.3720405862458Q353.9120631341601 408.3720405862458 301.4205186020293 355.880496054115T248.9289740698985 224.9222096956032Q248.9289740698985 146.4554678692222 301.4205186020293 93.4227733934612T432.3788049605411 40.3900789177002zM432.3788049605411 105.3280721533258Q380.9695603156708 105.3280721533258 347.4182638105975 139.4205186020294T313.8669673055242 224.9222096956032Q313.8669673055242 276.3314543404736 347.4182638105975 309.8827508455469T432.3788049605412 343.4340473506202Q483.7880496054115 343.4340473506202 517.880496054115 309.8827508455469T551.9729425028186 224.9222096956032Q551.9729425028186 173.5129650507329 517.880496054115 139.4205186020294T432.3788049605412 105.3280721533258zM0 -118.7080045095829V566.3878241262682H224.0360766629087L303.04396843292 660.5479143179255H642.8861330326945V530.6719278466742H735.9639233370913V437.5941375422773H865.8399098083427V-118.7080045095829H0z" />
    <glyph glyph-name="add-ad"
      unicode="&#xE082;"
      horiz-adv-x="960" d=" M747.2727272727273 -39.2727272727272V108H600V173.4545454545455H747.2727272727273V320.7272727272728H812.7272727272727V173.4545454545455H960V108H812.7272727272726V-39.2727272727272H747.2727272727271zM1e-13 -82.9090909090909V718.9090909090909H801.8181818181818V386.1818181818182H736.3636363636363V500.7272727272727H65.4545454545455V-17.4545454545454H681.8181818181819V-82.9090909090909H1e-13zM65.4545454545455 566.1818181818181H736.3636363636364V653.4545454545454H65.4545454545455V566.1818181818181zM65.4545454545455 566.1818181818181V653.4545454545454V566.1818181818181z" />
    <glyph glyph-name="add-ad-fill"
      unicode="&#xE083;"
      horiz-adv-x="960" d=" M747.2727272727273 -39.2727272727272V108H600V173.4545454545455H747.2727272727273V320.7272727272728H812.7272727272727V173.4545454545455H960V108H812.7272727272726V-39.2727272727272H747.2727272727271zM1e-13 -82.9090909090909V718.9090909090909H801.8181818181818V386.1818181818182H736.3636363636363V500.7272727272727H65.4545454545455V-17.4545454545454H681.8181818181819V-82.9090909090909H1e-13z" />
    <glyph glyph-name="add-alert"
      unicode="&#xE084;"
      horiz-adv-x="960" d=" M96 -18V54H192V418.8Q192 519.6 251.4 599.4T408 699.6V798H552V699.6Q649.2 679.2 708.6 599.4T768 418.8V54H864V-18H96zM480 344.4zM480 -162Q440.4 -162 412.2 -133.7999999999999T384 -66H576Q576 -105.6 547.8 -133.7999999999999T480 -162zM264 54H696V418.8Q696 508.8 633 571.8T480 634.8Q390 634.8 327 571.8T264 418.8V54zM444 183.6H516V284.4H616.8V356.4H516V457.2H444V356.4H343.2V284.4H444V183.6z" />
    <glyph glyph-name="add-alert-fill"
      unicode="&#xE085;"
      horiz-adv-x="960" d=" M96 -18V54H192V418.8Q192 519.6 251.4 599.4T408 699.6V798H552V699.6Q649.2 679.2 708.6 599.4T768 418.8V54H864V-18H96zM480 -162Q440.4 -162 412.2 -133.7999999999999T384 -66H576Q576 -105.6 547.8 -133.7999999999999T480 -162zM444 183.5999999999999H516V284.3999999999999H616.8V356.3999999999999H516V457.1999999999999H444V356.3999999999999H343.2V284.3999999999999H444V183.5999999999999z" />
    <glyph glyph-name="add-box"
      unicode="&#xE086;"
      horiz-adv-x="960" d=" M440 51.3333333333334H520V278H746.6666666666666V358H520V584.6666666666666H440V358H213.3333333333333V278H440V51.3333333333334zM0 -162V798H960V-162H0zM80 -82H880V718H80V-82zM80 -82V718V-82z" />
    <glyph glyph-name="add-box-fill"
      unicode="&#xE087;"
      horiz-adv-x="960" d=" M440 51.3333333333334H520V278H746.6666666666666V358H520V584.6666666666666H440V358H213.3333333333333V278H440V51.3333333333334zM0 -162V798H960V-162H0z" />
    <glyph glyph-name="add-call"
      unicode="&#xE088;"
      horiz-adv-x="960" d=" M709.3333333333333 376.6666666666668V547.3333333333334H538.6666666666666V627.3333333333334H709.3333333333333V798H789.3333333333333V627.3333333333334H959.9999999999998V547.3333333333334H789.3333333333333V376.6666666666668H709.3333333333333zM879.9999999999999 -161.9999999999999Q735.9999999999999 -161.9999999999999 579.9999999999999 -86.6666666666665T287.3333333333333 124.6666666666668Q150.6666666666666 260.6666666666668 75.3333333333333 416.6666666666668T0 718V798H286.6666666666667L340 546L184 387.3333333333334Q221.3333333333333 327.3333333333334 260.6666666666667 276T342.6666666666667 182Q390.6666666666667 134 445.3333333333333 92T562.6666666666666 15.3333333333334L718.6666666666666 176.6666666666668L960 124.6666666666668V-161.9999999999999H880zM145.3333333333333 462L253.3333333333333 571.3333333333333L222.6666666666667 718H80Q80 667.3333333333333 95.3333333333333 604.6666666666666T145.3333333333333 462zM637.3333333333333 -22Q691.9999999999999 -47.3333333333334 755.9999999999999 -63.3333333333334T879.9999999999999 -82V60.6666666666666L742.6666666666665 88.6666666666666L637.3333333333331 -22zM145.3333333333333 462zM637.3333333333333 -22z" />
    <glyph glyph-name="add-call-fill"
      unicode="&#xE089;"
      horiz-adv-x="960" d=" M709.3333333333333 376.6666666666668V547.3333333333334H538.6666666666666V627.3333333333334H709.3333333333333V798H789.3333333333333V627.3333333333334H959.9999999999998V547.3333333333334H789.3333333333333V376.6666666666668H709.3333333333333zM879.9999999999999 -161.9999999999999Q735.9999999999999 -161.9999999999999 579.9999999999999 -86.6666666666665T288 124.6666666666668Q150.6666666666666 260.6666666666668 75.3333333333333 416.6666666666668T0 718V798H286.6666666666667L340 546L184 387.3333333333334Q221.3333333333333 327.3333333333334 260.6666666666667 276T342.6666666666667 182Q390.6666666666667 134 445.3333333333333 92T562.6666666666666 15.3333333333334L718.6666666666666 176.6666666666668L960 124.6666666666668V-161.9999999999999H880z" />
    <glyph glyph-name="add-card"
      unicode="&#xE08A;"
      horiz-adv-x="960" d=" M1e-13 12.5454545454546V710.7272727272727H872.7272727272727V384.5454545454546H65.4545454545455V78.0000000000001H500.7272727272727V12.5454545454546H1e-13zM65.4545454545455 536.1818181818182H807.2727272727273V645.2727272727273H65.4545454545455V536.1818181818182zM763.6363636363636 -74.7272727272726V56.1818181818182H632.7272727272727V121.6363636363638H763.6363636363636V252.5454545454546H829.0909090909091V121.6363636363638H960V56.1818181818182H829.090909090909V-74.7272727272726H763.6363636363635zM65.4545454545455 78V645.2727272727273V78z" />
    <glyph glyph-name="add-card-fill"
      unicode="&#xE08B;"
      horiz-adv-x="960" d=" M65.4545454545455 384.5454545454545H807.2727272727273V536.1818181818181H65.4545454545455V384.5454545454545zM763.6363636363636 -74.7272727272726V56.1818181818182H632.7272727272727V121.6363636363638H763.6363636363636V252.5454545454546H829.0909090909091V121.6363636363638H960V56.1818181818182H829.090909090909V-74.7272727272726H763.6363636363635zM1e-13 12.5454545454546V710.7272727272727H872.7272727272727V318.0000000000001H763.6363636363636Q682.1454545454545 318.0000000000001 624.709090909091 260.5636363636364Q567.2727272727273 203.1272727272729 567.2727272727273 121.6363636363636V12.5454545454545H1e-13z" />
    <glyph glyph-name="add-chart"
      unicode="&#xE08C;"
      horiz-adv-x="960" d=" M218.6666666666666 47.3333333333334H298.6666666666667V414H218.6666666666666V47.3333333333334zM440 47.3333333333334H520V588.6666666666666H440V47.3333333333334zM661.3333333333333 47.3333333333334H741.3333333333333V244.6666666666668H661.3333333333333V47.3333333333335zM0 -162V798H606.6666666666666V718H80V-82H880V444.6666666666667H960V-162H0zM764 484.6666666666666V600.6666666666666H646.6666666666666V680.6666666666666H764V798H844V680.6666666666666H960V600.6666666666666H844V484.6666666666666H764zM480 318z" />
    <glyph glyph-name="add-chart-fill"
      unicode="&#xE08D;"
      horiz-adv-x="960" d=" M218.6666666666666 47.3333333333334H298.6666666666667V414H218.6666666666666V47.3333333333334zM440 47.3333333333334H520V588.6666666666666H440V47.3333333333334zM661.3333333333333 47.3333333333334H741.3333333333333V244.6666666666668H661.3333333333333V47.3333333333335zM763.9999999999999 484.6666666666667V600.6666666666667H646.6666666666665V680.6666666666667H763.9999999999999V798H843.9999999999999V680.6666666666667H959.9999999999998V600.6666666666667H843.9999999999999V484.6666666666667H763.9999999999999zM0 -162V798H606.6666666666666V444.6666666666667H960V-162H0z" />
    <glyph glyph-name="add-comment"
      unicode="&#xE08E;"
      horiz-adv-x="960" d=" M444 222H516V378H672V450H516V606H444V450H288V378H444V222zM0 -162V798H960V30H192L0 -162zM160.8 102H887.9999999999999V726H72V6L160.8 102zM72 102V726V102z" />
    <glyph glyph-name="add-comment-fill"
      unicode="&#xE08F;"
      horiz-adv-x="960" d=" M444 222H516V378H672V450H516V606H444V450H288V378H444V222zM0 -162V798H960V30H192L0 -162z" />
    </font>
</defs>
</svg>
